<svg width="50" height="50" viewBox="0 0 50 50" fill="none" xmlns="http://www.w3.org/2000/svg">
<path d="M49.167 0H35.8336C35.3736 0 35.0003 0.372461 35.0003 0.833302V6.66661C34.5403 6.66661 34.167 7.03907 34.167 7.49991C34.167 7.96075 34.5403 8.33321 35.0003 8.33321V14.1665C35.0003 14.6274 35.3736 14.9998 35.8336 14.9998H41.6669V15.8331C41.6669 16.294 42.0402 16.6664 42.5002 16.6664C42.9602 16.6664 43.3335 16.294 43.3335 15.8331V15H49.1668C49.6268 15 50.0001 14.6276 50.0001 14.1667V0.833302C50.0003 0.372461 49.627 0 49.167 0ZM48.3336 13.3333H36.667V1.6667H48.3337V13.3333H48.3336Z" fill="#BF2419"/>
<path d="M3.3333 12.5H6.66661V13.3333C6.66661 13.7942 7.03995 14.1666 7.49991 14.1666C7.95987 14.1666 8.33321 13.7942 8.33321 13.3333V12.5H11.6665C12.1265 12.5 12.4998 12.1276 12.4998 11.6667V8.33331H13.3331C13.7931 8.33331 14.1664 7.96085 14.1664 7.50001C14.1664 7.03917 13.7931 6.6667 13.3331 6.6667H12.5V3.3333C12.5 2.87246 12.1267 2.5 11.6667 2.5H3.3333C2.87334 2.5 2.5 2.87246 2.5 3.3333V11.6666C2.5 12.1276 2.87334 12.5 3.3333 12.5ZM4.1667 4.1667H10.8334V10.8334H4.1667V4.1667Z" fill="#BF2419"/>
<path d="M46.6668 37.5003H43.3335C43.3335 37.0395 42.9602 36.667 42.5002 36.667C42.0402 36.667 41.6669 37.0395 41.6669 37.5003H38.3336C37.8736 37.5003 37.5003 37.8728 37.5003 38.3336V41.6669C37.0403 41.6669 36.667 42.0394 36.667 42.5002C36.667 42.961 37.0403 43.3335 37.5003 43.3335V46.6668C37.5003 47.1276 37.8736 47.5001 38.3336 47.5001H46.6669C47.1269 47.5001 47.5002 47.1276 47.5002 46.6668V38.3335C47.5001 37.8728 47.1268 37.5003 46.6668 37.5003ZM45.8334 45.8336H39.1667V39.1669H45.8334V45.8336Z" fill="#BF2419"/>
<path d="M8.3336 17.5003C8.3336 17.0395 7.96026 16.667 7.50029 16.667C7.04033 16.667 6.66699 17.0395 6.66699 17.5003V19.167C6.66699 19.6278 7.04033 20.0003 7.50029 20.0003C7.96026 20.0003 8.3336 19.6278 8.3336 19.167V17.5003Z" fill="#BF2419"/>
<path d="M7.50029 28.333C7.04033 28.333 6.66699 28.7055 6.66699 29.1663V30.833C6.66699 31.2939 7.04033 31.6663 7.50029 31.6663C7.96026 31.6663 8.3336 31.2939 8.3336 30.833V29.1663C8.3336 28.7056 7.96026 28.333 7.50029 28.333Z" fill="#BF2419"/>
<path d="M8.3336 23.3333C8.3336 22.8725 7.96026 22.5 7.50029 22.5C7.04033 22.5 6.66699 22.8725 6.66699 23.3333V25C6.66699 25.4608 7.04033 25.8333 7.50029 25.8333C7.96026 25.8333 8.3336 25.4608 8.3336 25V23.3333Z" fill="#BF2419"/>
<path d="M42.5003 22.5003C42.9603 22.5003 43.3336 22.1278 43.3336 21.667V20.0003C43.3336 19.5395 42.9603 19.167 42.5003 19.167C42.0403 19.167 41.667 19.5395 41.667 20.0003V21.667C41.667 22.1278 42.0403 22.5003 42.5003 22.5003Z" fill="#BF2419"/>
<path d="M41.667 27.5C41.667 27.9608 42.0403 28.3333 42.5003 28.3333C42.9603 28.3333 43.3336 27.9608 43.3336 27.5V25.8333C43.3336 25.3725 42.9603 25 42.5003 25C42.0403 25 41.667 25.3725 41.667 25.8333V27.5Z" fill="#BF2419"/>
<path d="M41.667 33.334C41.667 33.7948 42.0403 34.1673 42.5003 34.1673C42.9603 34.1673 43.3336 33.7948 43.3336 33.334V31.6673C43.3336 31.2064 42.9603 30.834 42.5003 30.834C42.0403 30.834 41.667 31.2064 41.667 31.6673V33.334Z" fill="#BF2419"/>
<path d="M23.3333 8.3336H25C25.46 8.3336 25.8333 7.96113 25.8333 7.50029C25.8333 7.03945 25.46 6.66699 25 6.66699H23.3333C22.8733 6.66699 22.5 7.03945 22.5 7.50029C22.5 7.96113 22.8733 8.3336 23.3333 8.3336Z" fill="#BF2419"/>
<path d="M17.4998 8.3336H19.1665C19.6265 8.3336 19.9998 7.96113 19.9998 7.50029C19.9998 7.03945 19.6265 6.66699 19.1665 6.66699H17.4998C17.0398 6.66699 16.6665 7.03945 16.6665 7.50029C16.6665 7.96113 17.0398 8.3336 17.4998 8.3336Z" fill="#BF2419"/>
<path d="M29.1668 8.3336H30.8335C31.2935 8.3336 31.6668 7.96113 31.6668 7.50029C31.6668 7.03945 31.2935 6.66699 30.8335 6.66699H29.1668C28.7068 6.66699 28.3335 7.03945 28.3335 7.50029C28.3335 7.96113 28.7067 8.3336 29.1668 8.3336Z" fill="#BF2419"/>
<path d="M27.5 41.667H25.8333C25.3733 41.667 25 42.0395 25 42.5003C25 42.9611 25.3733 43.3336 25.8333 43.3336H27.5C27.96 43.3336 28.3333 42.9611 28.3333 42.5003C28.3333 42.0395 27.96 41.667 27.5 41.667Z" fill="#BF2419"/>
<path d="M21.667 41.667H20.0003C19.5403 41.667 19.167 42.0395 19.167 42.5003C19.167 42.9611 19.5403 43.3336 20.0003 43.3336H21.667C22.127 43.3336 22.5003 42.9611 22.5003 42.5003C22.5003 42.0395 22.127 41.667 21.667 41.667Z" fill="#BF2419"/>
<path d="M33.3335 41.667H31.6668C31.2068 41.667 30.8335 42.0395 30.8335 42.5003C30.8335 42.9611 31.2068 43.3336 31.6668 43.3336H33.3335C33.7935 43.3336 34.1668 42.9611 34.1668 42.5003C34.1668 42.0395 33.7936 41.667 33.3335 41.667Z" fill="#BF2419"/>
<path d="M15.8333 41.6669H15V35.8336C15 35.3728 14.6267 35.0003 14.1667 35.0003H8.33331C8.33331 34.5395 7.95997 34.167 7.50001 34.167C7.04005 34.167 6.66671 34.5395 6.66671 35.0003H0.833302C0.37334 35.0003 0 35.3728 0 35.8336V49.1669C0 49.6278 0.37334 50.0002 0.833302 50.0002H14.1666C14.6266 50.0002 14.9999 49.6278 14.9999 49.1669V43.3336H15.8332C16.2932 43.3336 16.6665 42.9611 16.6665 42.5003C16.6665 42.0395 16.2934 41.6669 15.8333 41.6669ZM13.3333 48.3335H1.6667V36.6669H13.3334V48.3335H13.3333Z" fill="#BF2419"/>
<path d="M33.3332 15.833H23.3332C22.9966 15.833 22.6924 16.0355 22.5632 16.3472C22.434 16.6588 22.5056 17.0172 22.744 17.2555L27.1549 21.6663L15.2439 33.5773C14.918 33.9031 14.918 34.4298 15.2439 34.7556C15.4064 34.9181 15.6198 34.9997 15.8331 34.9997C16.0465 34.9997 16.2597 34.9181 16.4222 34.7556L28.3331 22.8447L32.7439 27.2556C32.9031 27.4148 33.1164 27.4997 33.3331 27.4997C33.4406 27.4997 33.5489 27.4797 33.6522 27.4363C33.9631 27.308 34.1664 27.003 34.1664 26.6663V16.6663C34.1666 16.2056 33.7933 15.833 33.3332 15.833ZM32.4999 24.6547L25.3449 17.4997H32.4999V24.6547Z" fill="#BF2419"/>
</svg>
