<svg width="52" height="50" viewBox="0 0 52 50" fill="none" xmlns="http://www.w3.org/2000/svg">
<path d="M25.862 35.3452C26.3388 35.3452 26.7241 34.9589 26.7241 34.4831C26.7241 34.0073 26.3388 33.6211 25.862 33.6211C25.3853 33.6211 25 34.0073 25 34.4831C25 34.9589 25.3853 35.3452 25.862 35.3452Z" fill="#BF2419"/>
<path d="M12.0691 12.9307C11.5923 12.9307 11.207 13.3169 11.207 13.7927C11.207 14.2685 11.5923 14.6547 12.0691 14.6547C12.5458 14.6547 12.9311 14.2685 12.9311 13.7927C12.9311 13.3169 12.5458 12.9307 12.0691 12.9307Z" fill="#BF2419"/>
<path d="M6.28661 9.48763L9.2952 5.70924C9.5917 5.33687 9.53058 4.79458 9.15811 4.49807C8.78402 4.20157 8.24344 4.2636 7.94694 4.63516L4.509 8.95139C4.25816 9.26608 4.25897 9.7117 4.50991 10.0264L7.94785 14.3307C8.11767 14.5437 8.36851 14.6548 8.62198 14.6548C8.81079 14.6548 8.9996 14.5936 9.15902 14.466C9.53139 14.1695 9.5918 13.6272 9.29439 13.2548L6.28661 9.48763Z" fill="#BF2419"/>
<path d="M47.8465 0H3.87759C1.73963 0 0 1.73973 0 3.8785V31.8966V35.7768C0 37.9156 1.73963 39.6552 3.87759 39.6552H19.2717C19.3942 41.1656 18.7385 42.6563 17.5266 43.5103L15.9739 44.6051C15.8486 44.6923 15.7473 44.8025 15.6718 44.9268C14.5888 45.2354 13.7931 46.2332 13.7931 47.4138C13.7931 48.8396 14.9534 50 16.3793 50H35.3447C36.7706 50 37.9309 48.8396 37.9309 47.4138C37.9309 46.2332 37.1352 45.2353 36.0521 44.9268C35.9776 44.8042 35.8779 44.695 35.755 44.6078L34.1998 43.5121C32.9877 42.6579 32.3307 41.1669 32.4537 39.6552H47.8465C49.9844 39.6552 51.7241 37.9156 51.7241 35.7768V31.8966V3.8785C51.7241 1.73973 49.9844 0 47.8465 0ZM1.72417 3.8785C1.72417 2.69056 2.69056 1.72417 3.87759 1.72417H47.8465C49.0335 1.72417 49.9999 2.69056 49.9999 3.8785V30.1724H1.72417V3.8785ZM35.3448 48.2758H16.3793C15.9034 48.2758 15.5172 47.8888 15.5172 47.4138C15.5172 46.9388 15.9034 46.5518 16.3793 46.5518H16.574H35.1498H35.3447C35.8205 46.5518 36.2067 46.9388 36.2067 47.4138C36.2067 47.8888 35.8206 48.2758 35.3448 48.2758ZM30.7257 39.6569C30.6111 41.6646 31.4869 43.637 33.0774 44.8276H18.6473C20.2388 43.637 21.1145 41.6638 20.9999 39.6552L30.7257 39.6569ZM49.9999 35.7767C49.9999 36.9646 49.0335 37.931 47.8465 37.931H32.8085H18.9163H3.87759C2.69056 37.931 1.72417 36.9646 1.72417 35.7767V31.8965H50V35.7767H49.9999Z" fill="#BF2419"/>
<path d="M12.0691 4.31055C11.5923 4.31055 11.207 4.69676 11.207 5.17258V10.345C11.207 10.8208 11.5923 11.207 12.0691 11.207C12.5458 11.207 12.9311 10.8208 12.9311 10.345V5.17258C12.9311 4.69676 12.5458 4.31055 12.0691 4.31055Z" fill="#BF2419"/>
<path d="M17.2415 12.9307H15.5173C15.0406 12.9307 14.6553 13.3169 14.6553 13.7927C14.6553 14.2685 15.0406 14.6547 15.5173 14.6547H17.2415C17.7182 14.6547 18.1035 14.2685 18.1035 13.7927C18.1035 13.3169 17.7182 12.9307 17.2415 12.9307Z" fill="#BF2419"/>
<path d="M22.4134 12.9307H20.6892C20.2125 12.9307 19.8271 13.3169 19.8271 13.7927C19.8271 14.2685 20.2125 14.6547 20.6892 14.6547H22.4134C22.8901 14.6547 23.2754 14.2685 23.2754 13.7927C23.2754 13.3169 22.8901 12.9307 22.4134 12.9307Z" fill="#BF2419"/>
</svg>
