<svg width="50" height="58" viewBox="0 0 50 58" fill="none" xmlns="http://www.w3.org/2000/svg">
<path d="M12.437 40.9083C15.0475 40.9083 17.1714 38.7845 17.1714 36.1739C17.1714 33.5634 15.0476 31.4395 12.437 31.4395C9.82655 31.4395 7.70264 33.5633 7.70264 36.1739C7.70264 38.7844 9.82655 40.9083 12.437 40.9083ZM12.437 33.3333C14.0031 33.3333 15.2777 34.6078 15.2777 36.1739C15.2777 37.74 14.0031 39.0145 12.437 39.0145C10.8709 39.0145 9.59642 37.74 9.59642 36.1739C9.59642 34.6078 10.8709 33.3333 12.437 33.3333Z" fill="#BF2419"/>
<path d="M49.3638 12.8671C49.3634 12.8548 49.3628 12.8425 49.3619 12.8302C49.3592 12.7921 49.3549 12.7545 49.3479 12.7179C49.3475 12.7154 49.3473 12.713 49.3468 12.7105C49.3385 12.6688 49.3268 12.6285 49.3133 12.589C49.3109 12.5818 49.3081 12.5748 49.3055 12.5677C49.2912 12.529 49.275 12.4913 49.2559 12.4552C49.2554 12.4542 49.2551 12.4532 49.2545 12.4522C49.2343 12.4143 49.2111 12.3782 49.186 12.3436C49.1817 12.3375 49.1772 12.3316 49.1726 12.3256C49.1453 12.2897 49.1162 12.2553 49.0843 12.2235L37.7254 0.864623C37.6956 0.834885 37.6632 0.807922 37.6297 0.78229C37.6217 0.776187 37.6139 0.770195 37.6058 0.764314C37.5728 0.740679 37.5386 0.718598 37.5026 0.69929C37.4976 0.696627 37.4924 0.694519 37.4872 0.691856C37.4556 0.675656 37.423 0.661453 37.3895 0.648803C37.3794 0.64503 37.3693 0.641147 37.3591 0.637707C37.3217 0.625057 37.2836 0.614072 37.2445 0.606083C37.2373 0.60464 37.2298 0.604085 37.2226 0.602754C37.1908 0.597095 37.1585 0.5931 37.1256 0.59077C37.1111 0.58966 37.0967 0.588995 37.0821 0.588551C37.0734 0.588329 37.0648 0.587219 37.056 0.587219H4.86222C4.33959 0.587219 3.91538 1.01143 3.91538 1.53405V27.0996C3.91538 27.1585 3.92148 27.216 3.9318 27.2719L2.65219 28.5515C2.32175 28.8811 2.28192 29.4037 2.55754 29.7805L3.41639 30.9509C3.80176 31.4783 3.88698 32.1287 3.64841 32.7376C3.40984 33.3454 2.90508 33.7649 2.26316 33.888L0.895895 34.1512C0.44994 34.2374 0.12793 34.6275 0.12793 35.0811V37.703C0.12793 38.1707 0.468804 38.5684 0.930848 38.6394L2.36536 38.8591C3.01116 38.9585 3.53101 39.3591 3.79232 39.9584C4.05364 40.5568 3.99405 41.2111 3.62666 41.7517L2.84649 42.9041C2.59183 43.28 2.6391 43.7847 2.96111 44.1047L3.91716 45.0607C3.91682 45.0705 3.91571 45.08 3.91571 45.0899V56.4524C3.91571 56.975 4.33992 57.3992 4.86255 57.3992H48.4186C48.9423 57.3992 49.3655 56.975 49.3655 56.4524V12.8965C49.3652 12.8865 49.364 12.877 49.3638 12.8671ZM38.0028 3.81975L46.1326 11.9496H38.0028V3.81975ZM2.65308 36.9883L2.02149 36.8907V35.8633L2.6209 35.7478C3.89441 35.5035 4.93789 34.6362 5.41137 33.429C5.88484 32.2217 5.70963 30.8772 4.94366 29.8318L4.56495 29.3157L5.29219 28.5895L6.13306 29.1595C7.18409 29.8706 8.50974 30.006 9.68094 29.5202C10.8531 29.0344 11.6949 28.0015 11.9345 26.7563L12.1266 25.7583H13.154L13.2516 26.3899C13.4485 27.6719 14.2761 28.7457 15.4644 29.2646C16.6518 29.7825 18.0038 29.6585 19.0776 28.9322L19.5833 28.5895L20.3095 29.3157L19.9317 29.8318C19.1647 30.8772 18.9895 32.2217 19.464 33.429C19.9375 34.6362 20.9808 35.5036 22.2534 35.7478L22.8529 35.8633V36.8907L22.2213 36.9883C20.9392 37.1852 19.8646 38.0128 19.3466 39.2011C18.8277 40.3904 18.9518 41.7405 19.6799 42.8143L20.0218 43.319L19.2955 44.0452L19.127 43.9222C18.058 43.1391 16.6878 42.9734 15.4645 43.4809C14.2392 43.9874 13.3879 45.0726 13.1863 46.3831L13.1542 46.5894H12.1268L12.0112 45.99C11.7669 44.7165 10.9005 43.674 9.69326 43.1996C8.48788 42.7261 7.14148 42.9003 6.09511 43.6683L5.57903 44.0451L4.85279 43.3189L5.19554 42.8142C5.92279 41.7404 6.04673 40.3902 5.52887 39.201C5.00991 38.0128 3.93513 37.1852 2.65308 36.9883ZM31.3747 19.5246H39.8966V47.9308H14.8273C14.8632 47.8527 14.889 47.7687 14.9028 47.6803L15.058 46.6709C15.1583 46.0204 15.5807 45.4826 16.1886 45.2297C16.7965 44.9797 17.4754 45.0593 18.0066 45.4494L18.8304 46.0535C19.2082 46.33 19.729 46.2893 20.0594 45.9589L21.9133 44.1049C22.2352 43.7849 22.2826 43.2802 22.0289 42.9043L21.2477 41.7529C20.8813 41.2112 20.8206 40.5569 21.082 39.9585C21.3433 39.3591 21.8632 38.9586 22.509 38.8592L23.9435 38.6395C24.4055 38.5685 24.7464 38.1708 24.7464 37.7031V35.0812C24.7464 34.6277 24.4245 34.2375 23.9785 34.1513L22.6112 33.8881C21.9702 33.7651 21.4645 33.3455 21.2259 32.7377C20.9874 32.1288 21.0726 31.4784 21.4588 30.951L22.3167 29.7807C22.5932 29.4038 22.5534 28.8811 22.2229 28.5516L20.369 26.6977C20.048 26.3767 19.5442 26.3284 19.1684 26.5831L18.016 27.3632C17.4744 27.7306 16.8211 27.7903 16.2217 27.5289C15.6233 27.2676 15.2227 26.7477 15.1233 26.1019L14.9027 24.6674C14.8307 24.2054 14.434 23.8645 13.9662 23.8645H13.384V10.0559H30.4277V18.5778C30.4278 19.1004 30.852 19.5246 31.3747 19.5246ZM5.80916 55.5058V46.1789C5.89116 46.1489 5.97028 46.1074 6.04385 46.0536L7.21516 45.1948C7.74167 44.8075 8.39301 44.7232 9.00097 44.9627C9.60882 45.2013 10.0284 45.7061 10.1524 46.348L10.4147 47.7153C10.5008 48.1612 10.891 48.4832 11.3446 48.4832H11.4905V48.8776C11.4905 49.4002 11.9147 49.8244 12.4373 49.8244H40.8435C41.3661 49.8244 41.7903 49.4002 41.7903 48.8776V18.5778C41.7903 18.0551 41.3661 17.6309 40.8435 17.6309H32.3217V9.10907C32.3217 8.58644 31.8974 8.16223 31.3748 8.16223H12.4372C11.9146 8.16223 11.4904 8.58644 11.4904 9.10907V23.8646H11.3445C10.891 23.8646 10.5008 24.1865 10.4146 24.6326L10.0747 26.3985C9.95446 27.0254 9.54635 27.5262 8.95648 27.7706C8.3666 28.0168 7.72369 27.9496 7.19529 27.5916L5.80916 26.6525V2.48089H36.1091V12.8965C36.1091 13.4191 36.5333 13.8434 37.0559 13.8434H47.4716V55.5058H5.80916Z" fill="#BF2419"/>
</svg>
