<svg width="62" height="61" viewBox="0 0 62 61" fill="none" xmlns="http://www.w3.org/2000/svg">
<path d="M58.9 0H3.1C1.39088 0 0 1.36845 0 3.05V9.15V57.95C0 59.6315 1.39088 61 3.1 61H58.9C60.6091 61 62 59.6315 62 57.95V9.15V3.05C62 1.36845 60.6091 0 58.9 0ZM2.06671 3.05C2.06671 2.4898 2.52965 2.03337 3.1 2.03337H58.9C59.4704 2.03337 59.9333 2.4898 59.9333 3.05V8.13337H2.06671V3.05ZM59.9333 57.95C59.9333 58.5102 59.4704 58.9666 58.9 58.9666H3.1C2.52965 58.9666 2.06671 58.5102 2.06671 57.95V10.1666H59.9334V57.95H59.9333Z" fill="#BF2419"/>
<path d="M5.16684 4.06659C4.5954 4.06659 4.13354 4.52206 4.13354 5.08322C4.13354 5.64437 4.5954 6.09984 5.16684 6.09984C5.73828 6.09984 6.20013 5.64437 6.20013 5.08322C6.20013 4.52206 5.73828 4.06659 5.16684 4.06659Z" fill="#BF2419"/>
<path d="M9.30014 4.06659C8.7287 4.06659 8.26685 4.52206 8.26685 5.08322C8.26685 5.64437 8.7287 6.09984 9.30014 6.09984C9.87158 6.09984 10.3334 5.64437 10.3334 5.08322C10.3334 4.52206 9.87158 4.06659 9.30014 4.06659Z" fill="#BF2419"/>
<path d="M13.4332 4.06659C12.8618 4.06659 12.3999 4.52206 12.3999 5.08322C12.3999 5.64437 12.8618 6.09984 13.4332 6.09984C14.0046 6.09984 14.4665 5.64437 14.4665 5.08322C14.4666 4.52206 14.0046 4.06659 13.4332 4.06659Z" fill="#BF2419"/>
<path d="M26.8668 43.7167C30.138 43.7167 33.1168 42.4634 35.3348 40.4202L45.8149 49.5565C46.0112 49.7273 46.2562 49.8117 46.5001 49.8117C46.7843 49.8117 47.0695 49.6957 47.273 49.469C47.6512 49.0492 47.612 48.4066 47.1852 48.0335L36.7215 38.9124C38.3173 36.8592 39.2668 34.2951 39.2668 31.5165C39.2668 24.7893 33.7044 19.3165 26.8668 19.3165C20.0292 19.3165 14.4668 24.7893 14.4668 31.5165C14.4668 38.2439 20.0292 43.7167 26.8668 43.7167ZM26.8668 21.35C32.5646 21.35 37.2001 25.9108 37.2001 31.5167C37.2001 37.1225 32.5645 41.6833 26.8668 41.6833C21.1691 41.6833 16.5335 37.1225 16.5335 31.5167C16.5335 25.9108 21.169 21.35 26.8668 21.35Z" fill="#BF2419"/>
<path d="M21.7011 36.6C21.917 36.6 22.134 36.5339 22.32 36.3966C22.7768 36.0601 22.8698 35.4227 22.5267 34.9733L19.8917 31.5166L22.5267 28.06C22.8698 27.6106 22.7768 26.9732 22.32 26.6366C21.8632 26.2991 21.2154 26.3906 20.8733 26.84L17.7733 30.9066C17.4984 31.2675 17.4984 31.7658 17.7733 32.1266L20.8733 36.1933C21.0769 36.4597 21.3859 36.6 21.7011 36.6Z" fill="#BF2419"/>
<path d="M31.4133 36.3966C31.5993 36.5339 31.8163 36.6 32.0323 36.6C32.3475 36.6 32.6564 36.4596 32.86 36.1933L35.96 32.1267C36.2349 31.7659 36.2349 31.2676 35.96 30.9067L32.86 26.8401C32.5179 26.3907 31.87 26.2983 31.4133 26.6367C30.9565 26.9733 30.8635 27.6107 31.2066 28.0601L33.8416 31.5167L31.2066 34.9733C30.8636 35.4226 30.9566 36.0602 31.4133 36.3966Z" fill="#BF2419"/>
<path d="M24.4165 37.544C24.5416 37.5938 24.6718 37.6171 24.7999 37.6171C25.2091 37.6171 25.5977 37.3751 25.7598 36.9777L29.8931 26.8111C30.1049 26.2895 29.8466 25.6978 29.3165 25.4894C28.7904 25.282 28.185 25.5341 27.9732 26.0557L23.8399 36.2223C23.6281 36.7438 23.8865 37.3356 24.4165 37.544Z" fill="#BF2419"/>
</svg>
