<svg width="253" height="247" viewBox="0 0 253 247" fill="none" xmlns="http://www.w3.org/2000/svg">
<path d="M30.402 220.957L29.8685 215.878L28.14 184.85L20.3352 186.246C8.07263 202.164 20.5255 216.831 30.402 220.957Z" fill="#742E2E"/>
<rect width="279.343" height="5.55534" transform="matrix(0.787008 -0.616942 0.104485 0.994527 29.8218 215.421)" fill="#742E2E"/>
<path d="M29.8837 215.904C13.4673 207.149 12.0294 190.745 26.672 179.267L193.493 48.4945C208.136 37.016 233.314 34.8088 249.73 43.5647V43.5647L29.8837 215.904V215.904Z" fill="#E14646"/>
<rect width="17.0769" height="1.76837" rx="0.884187" transform="matrix(0.787008 -0.616942 0.882342 0.470609 31.3254 189.875)" fill="white"/>
<rect width="17.0769" height="1.76837" rx="0.884187" transform="matrix(0.787008 -0.616942 0.882342 0.470609 35.6753 191.715)" fill="white"/>
<rect width="17.0769" height="1.76837" rx="0.884187" transform="matrix(0.787008 -0.616942 0.882342 0.470609 40.0251 193.555)" fill="white"/>
</svg>
