<svg width="339" height="76" viewBox="0 0 339 76" fill="none" xmlns="http://www.w3.org/2000/svg">
<path d="M329.75 42.1322L326.084 37.4186L302.396 9.86229L310.106 4.71362C333.343 8.19442 334.732 30.6504 329.75 42.1322Z" fill="#742E2E"/>
<rect width="326.642" height="6.49599" transform="matrix(-0.994919 0.100678 0.613926 0.789364 325.752 36.9946)" fill="#742E2E"/>
<path d="M326.093 37.4527C332.835 16.7681 320.755 1.77561 299.109 3.96593L52.5088 28.9199C30.8636 31.1102 7.85063 49.654 1.10794 70.3385L326.093 37.4527Z" fill="#E14646"/>
<rect width="19.9685" height="2.0678" rx="1.0339" transform="matrix(-0.994919 0.100678 -0.309926 0.950761 303.783 16.6788)" fill="white"/>
<rect width="19.9685" height="2.0678" rx="1.0339" transform="matrix(-0.994919 0.100678 -0.309926 0.950761 301.608 21.755)" fill="white"/>
<rect width="19.9685" height="2.0678" rx="1.0339" transform="matrix(-0.994919 0.100678 -0.309926 0.950761 299.432 26.8312)" fill="white"/>
</svg>
