<svg width="583" height="351" viewBox="0 0 583 351" fill="none" xmlns="http://www.w3.org/2000/svg">
<g clip-path="url(#clip0)">
<path d="M396.532 0C381.8 0.19016 369.935 7.05405 357.997 13.9994C330.261 30.1359 302.389 46.046 274.607 62.1191C245.529 78.9498 216.478 95.8197 187.454 112.729C157.309 130.169 127.164 147.574 97.0191 164.942C69.762 180.707 42.4324 196.336 15.3199 212.355C-4.57581 224.127 -5.28125 247.363 14.1352 259.931C28.4149 269.168 43.5538 277.046 58.2586 285.63C79.7279 298.154 101.107 310.849 122.621 323.3C135.391 330.689 148.043 338.404 161.319 344.788C178.908 353.264 197.176 353.255 214.332 343.62C247.702 324.885 280.711 305.497 313.811 286.336C348.423 266.354 382.988 246.342 417.504 226.3C445.819 210.001 474.216 193.774 502.558 177.483C522.797 165.856 543.082 154.284 563.15 142.394C568.133 139.442 573.324 136.055 576.887 131.618C587.829 118.035 583.606 100.378 567.626 90.8695C554.423 83.0096 541.074 75.3941 527.771 67.6881C503.354 53.5709 479.063 39.3542 454.591 25.4091C441.786 18.1015 428.944 10.7848 415.704 4.45519C409.898 1.70239 402.944 1.41262 396.532 0ZM399.353 4.4733C411.11 3.65833 421.564 12.5234 432.76 19.4235C433.429 19.8401 433.438 22.8193 432.697 23.8063C427.632 30.5615 427.831 32.4993 435.148 36.7644C458.968 50.628 482.952 64.2109 506.591 78.319C514.957 83.3084 523.222 85.0742 532.375 81.6513C534.129 80.9321 536.031 80.6456 537.92 80.8158C539.808 80.9859 541.628 81.6079 543.227 82.6292C548.011 85.4998 552.722 88.4971 557.642 91.114C562.327 93.6042 566.125 96.837 566.152 102.397C566.152 108.111 562.263 111.76 557.724 114.431C544.357 122.309 530.909 130.034 517.462 137.767C487.823 154.809 458.181 171.839 428.537 188.857C406.754 201.407 384.998 214.012 363.27 226.671C336.742 242.095 310.19 257.529 283.614 272.971C257.798 287.906 231.949 302.784 206.066 317.604C198.343 322.032 189.969 322.838 181.178 322.087C171.022 321.181 163.462 314.978 155.169 310.315C134.459 298.597 113.885 286.662 93.257 274.809C70.395 261.679 47.4515 248.694 24.7252 235.337C14.1081 229.089 14.3071 219.228 24.8066 212.989C34.2571 207.365 43.798 201.869 53.3027 196.381C68.9661 187.326 84.6928 178.443 100.329 169.379C123.01 156.23 145.547 142.892 168.282 129.816C191.651 116.369 215.191 103.239 238.55 89.7829C264.777 74.6787 290.894 59.3844 317.057 44.1625C335.66 33.2962 354.38 22.7197 372.783 11.5636C380.28 7.00878 388.085 4.71779 399.353 4.4733Z" fill="url(#paint0_linear)"/>
<path d="M399.353 4.47333C388.085 4.71782 380.28 7.0088 372.783 11.5545C354.38 22.7016 335.659 33.2872 317.057 44.1535C290.894 59.3754 264.785 74.6697 238.55 89.7739C215.191 103.23 191.65 116.36 168.282 129.807C145.565 142.883 123.01 156.221 100.329 169.37C84.6925 178.425 68.9659 187.344 53.3025 196.372C43.7797 201.851 34.2568 207.347 24.7882 212.971C14.2886 219.21 14.0897 229.071 24.7068 235.319C47.4332 248.676 70.3766 261.661 93.2386 274.791C113.867 286.644 134.441 298.579 155.151 310.297C163.444 314.978 171.004 321.217 181.16 322.068C189.95 322.82 198.343 322.014 206.048 317.586C231.93 302.76 257.78 287.882 283.596 272.953C310.172 257.571 336.724 242.138 363.251 226.653C385.004 214.018 406.76 201.413 428.518 188.838C458.145 171.784 487.793 154.751 517.461 137.74C530.909 130.006 544.357 122.282 557.723 114.404C562.245 111.733 566.188 108.066 566.152 102.37C566.152 96.8098 562.326 93.5771 557.642 91.0869C552.722 88.4699 548.011 85.4726 543.227 82.6021C541.628 81.5807 539.808 80.9588 537.919 80.7886C536.031 80.6184 534.129 80.905 532.374 81.6241C523.222 85.047 514.956 83.2813 506.591 78.2918C482.915 64.1837 458.932 50.6008 435.147 36.7372C427.831 32.4722 427.632 30.5344 432.697 23.7791C433.438 22.7921 433.429 19.8129 432.76 19.3964C421.564 12.5234 411.11 3.65835 399.353 4.47333Z" fill="#F7F7F7"/>
</g>
<defs>
<linearGradient id="paint0_linear" x1="291.478" y1="0" x2="291.478" y2="351.003" gradientUnits="userSpaceOnUse">
<stop stop-color="#A9A9A9"/>
<stop offset="1" stop-color="#888888"/>
</linearGradient>
<clipPath id="clip0">
<rect width="583" height="351" transform="matrix(-1 0 0 1 583 0)" fill="white"/>
</clipPath>
</defs>
</svg>
