<svg width="319" height="406" viewBox="0 0 319 406" fill="none" xmlns="http://www.w3.org/2000/svg">
<circle r="6" transform="matrix(0.884988 -0.465614 0 1 260.31 50.3042)" fill="#E3E3E3"/>
<circle r="6" transform="matrix(0.884988 -0.465614 0 1 282.31 37.3042)" fill="#E3E3E3"/>
<circle r="6" transform="matrix(0.884988 -0.465614 0 1 303.31 24.3042)" fill="#E3E3E3"/>
<path d="M0.249033 191.738C0.11155 183.446 5.82681 173.364 13.0082 169.229L291 9.16705L292.802 8.08612C300.055 3.73377 306.132 7.02386 306.292 15.391L306.661 34.6058L0.573838 211.325L0.249033 191.738Z" fill="#424E52"/>
<path d="M3.3001 386.067C3.7001 401.267 14.4668 397.067 19.8001 393.067L15.3001 392.067L14.3001 371.067L3 366.167L3.3001 386.067Z" fill="#E6E6E6"/>
<path d="M15.8301 399.067C11.8301 398.267 8.16341 396.9 6.33008 395.067C10.8301 393.067 19.3301 385.856 21.3301 386.656C23.3301 387.456 23.4967 394.234 23.3301 397.567C22.4967 398.067 19.8301 399.867 15.8301 399.067Z" fill="#E6E6E6" stroke="#E5E5E5" stroke-width="0.2"/>
<rect width="9.25716" height="160" transform="matrix(0.884988 0.465614 0.0165799 0.999863 0.507324 206.908)" fill="#E6E6E6"/>
<path d="M315.5 15.6057C314.3 5.60575 298.833 5.10577 295 7.10577L307.5 15.0657L315.5 15.6057Z" fill="#424E52"/>
<path d="M7.97363 205.571L315.503 28.0184L318.57 212.993C318.708 221.276 313.003 231.349 305.829 235.491L24.28 398.043C17.1056 402.185 11.1783 398.828 11.0409 390.545L7.97363 205.571Z" fill="white"/>
<rect width="9.13154" height="328.289" transform="matrix(0.885832 0.464007 -0.865116 0.501572 295.008 7.16699)" fill="#424E52"/>
<rect width="8.85406" height="15.3491" transform="matrix(0.884988 0.465614 0.0165799 0.999863 0.325195 196.003)" fill="#424E52"/>
<path d="M316.081 37.8742L316.297 37.7492L316.293 37.4992L315.968 17.8914C315.829 9.47019 309.802 6.05729 302.508 10.2685L20.9599 172.821C13.6659 177.032 7.86618 187.272 8.00582 195.693L8.33096 215.301L8.33511 215.551L8.55162 215.426L316.081 37.8742Z" fill="#424E52" stroke="#424E52" stroke-width="0.5"/>
<circle r="6" transform="matrix(0.884988 -0.465614 0 1 255.31 56.3227)" fill="#3C4548"/>
<circle r="6" transform="matrix(0.884988 -0.465614 0 1 277.31 43.3226)" fill="#3C4548"/>
<circle r="6" transform="matrix(0.884988 -0.465614 0 1 298.31 30.3226)" fill="#D37C76"/>
<path d="M283 128.503C283 137.108 280.742 146.707 276.512 156.086C272.281 165.466 266.268 174.206 259.233 181.2C252.198 188.194 244.457 193.128 236.989 195.379C229.521 197.629 222.661 197.095 217.276 193.844C211.892 190.593 208.225 184.77 206.74 177.113C205.254 169.456 206.017 160.307 208.931 150.825C211.845 141.343 216.779 131.952 223.111 123.841C229.442 115.73 236.885 109.262 244.5 105.256V148.759L283 128.503Z" fill="#D37C76"/>
<path d="M248.5 97.2558C253.556 94.5958 258.562 93.0871 263.233 92.8158C267.904 92.5445 272.149 93.5159 275.724 95.6747C279.299 97.8334 282.135 101.137 284.069 105.397C286.004 109.657 287 114.79 287 120.503L248.5 140.759V97.2558Z" fill="#A26864"/>
<rect width="40.5646" height="57.6522" rx="10" transform="matrix(0.866025 -0.5 0.0165799 0.999863 73.5366 291.325)" fill="#A26864"/>
<rect width="40.5646" height="99.5694" rx="10" transform="matrix(0.866025 -0.5 0.0165799 0.999863 114.305 223.52)" fill="#A26864"/>
<rect width="40.5646" height="138.249" rx="10" transform="matrix(0.866025 -0.5 0.0165799 0.999863 155.359 157.757)" fill="#A26864"/>
<rect width="67.9613" height="6.792" rx="3.396" transform="matrix(0.866025 -0.5 0.0165799 0.999863 220.438 247.719)" fill="#A26864"/>
<rect width="67.9613" height="6.792" rx="3.396" transform="matrix(0.866025 -0.5 0.0165799 0.999863 220 232.981)" fill="#A26864"/>
<path d="M1 197.234V211.052L7.81818 215V189.646L11 182.429L16 177" stroke="#424E52"/>
</svg>
