<svg width="319" height="406" viewBox="0 0 319 406" fill="none" xmlns="http://www.w3.org/2000/svg">
<circle r="6" transform="matrix(0.884988 -0.465614 0 1 258.31 51.3037)" fill="#E3E3E3"/>
<path d="M0.249033 191.738C0.11155 183.446 5.82681 173.364 13.0082 169.229L291 9.16705L292.802 8.08612C300.055 3.73377 306.132 7.02386 306.292 15.391L306.661 34.6058L0.573838 211.325L0.249033 191.738Z" fill="#424E52"/>
<path d="M3.3001 386.067C3.7001 401.267 14.4668 397.067 19.8001 393.067L15.3001 392.067L14.3001 371.067L3 366.167L3.3001 386.067Z" fill="#E6E6E6"/>
<path d="M15.8301 399.067C11.8301 398.267 8.16341 396.9 6.33008 395.067C10.8301 393.067 19.3301 385.856 21.3301 386.656C23.3301 387.456 23.4967 394.234 23.3301 397.567C22.4967 398.067 19.8301 399.867 15.8301 399.067Z" fill="#E6E6E6" stroke="#E5E5E5" stroke-width="0.2"/>
<rect width="9.25716" height="160" transform="matrix(0.884988 0.465614 0.0165799 0.999863 0.507324 206.908)" fill="#E6E6E6"/>
<path d="M315.5 15.6057C314.3 5.60575 298.833 5.10577 295 7.10577L307.5 15.0657L315.5 15.6057Z" fill="#424E52"/>
<path d="M7.97363 205.571L315.503 28.0184L318.57 212.993C318.708 221.276 313.003 231.349 305.829 235.491L24.28 398.043C17.1056 402.185 11.1783 398.828 11.0409 390.545L7.97363 205.571Z" fill="white"/>
<rect width="9.13154" height="328.289" transform="matrix(0.885832 0.464007 -0.865116 0.501572 295.008 7.16699)" fill="#424E52"/>
<rect width="8.85406" height="15.3491" transform="matrix(0.884988 0.465614 0.0165799 0.999863 0.325195 196.003)" fill="#424E52"/>
<path d="M1 197.234V211.052L7.81818 215V189.646L11 182.429L16 177" stroke="#424E52"/>
<path d="M316.081 37.8742L316.297 37.7492L316.293 37.4992L315.968 17.8914C315.829 9.47019 309.802 6.05729 302.508 10.2685L20.9599 172.821C13.6659 177.032 7.86618 187.272 8.00582 195.693L8.33096 215.301L8.33511 215.551L8.55162 215.426L316.081 37.8742Z" fill="#424E52" stroke="#424E52" stroke-width="0.5"/>
<circle r="6" transform="matrix(0.884988 -0.465614 0 1 255.31 56.3227)" fill="#3C4548"/>
<circle r="6" transform="matrix(0.884988 -0.465614 0 1 277.31 43.3226)" fill="#3C4548"/>
<circle r="6" transform="matrix(0.884988 -0.465614 0 1 298.31 30.3226)" fill="#D37C76"/>
<path d="M74.3926 298.016L41.5633 294.547C40.2456 294.398 39.5867 293.49 39.5867 291.823C39.5867 290.423 40.2456 288.764 41.5633 286.847L74.3926 244.316C75.6531 242.832 76.8849 242.099 78.0881 242.117C79.2913 242.068 79.8928 242.877 79.8928 244.543C79.8928 246.21 79.2913 247.835 78.0881 249.417L47.0635 289.375V285.075L78.0881 288.317C79.2913 288.535 79.8928 289.41 79.8928 290.943C79.8928 292.143 79.5777 293.297 78.9475 294.406C78.3746 295.48 77.6584 296.373 76.799 297.084C75.9396 297.795 75.1375 298.106 74.3926 298.016ZM268.331 182.634C267.586 183.611 266.784 184.255 265.925 184.566C265.065 184.877 264.321 184.854 263.69 184.495C263.117 184.103 262.831 183.307 262.831 182.107C262.831 180.573 263.432 178.982 264.636 177.333L295.746 137.124V141.424L264.636 138.433C263.432 138.282 262.831 137.373 262.831 135.707C262.831 134.04 263.432 132.515 264.636 131.133C265.839 129.684 267.071 128.951 268.331 128.934L301.16 132.403C302.478 132.752 303.137 133.627 303.137 135.027C303.137 136.694 302.478 138.386 301.16 140.103L268.331 182.634Z" fill="#D37C76"/>
<rect width="138.998" height="10.1193" rx="5" transform="matrix(0.866025 -0.5 0.0165799 0.999863 103.026 183.796)" fill="#A26864"/>
<rect width="157.149" height="10.1193" rx="5" transform="matrix(0.866025 -0.5 0.0165799 0.999863 111.026 297.796)" fill="#A26864"/>
<rect width="77.5445" height="10.1193" rx="5" transform="matrix(0.866025 -0.5 0.0165799 0.999863 104.026 210.796)" fill="#A26864"/>
<rect width="124.144" height="10.1193" rx="5" transform="matrix(0.866025 -0.5 0.0165799 0.999863 104.026 233.069)" fill="#A26864"/>
<rect width="158.737" height="10.1193" rx="5" transform="matrix(0.866025 -0.5 0.0165799 0.999863 104.026 256.369)" fill="#A26864"/>
<rect width="80.4807" height="10.1193" rx="5" transform="matrix(0.866025 -0.5 0.0165799 0.999863 172.798 237.537)" fill="#A26864"/>
</svg>
