<svg width="320" height="406" viewBox="0 0 320 406" fill="none" xmlns="http://www.w3.org/2000/svg">
<rect width="355.104" height="224.597" transform="matrix(0.866025 -0.5 0.0165799 0.999863 7.97363 181.403)" fill="#F3F3F3"/>
<rect width="9" height="355.175" transform="matrix(0.885832 0.464007 -0.865116 0.501572 308.268 0)" fill="url(#paint0_linear)"/>
<rect width="8" height="224" transform="matrix(0.884988 0.465614 0.0165799 0.999863 1 178)" fill="#C4C4C4"/>
<rect x="-0.0450784" y="-0.0732739" width="8.3" height="34.25" transform="matrix(0.884988 0.465614 0.0165799 0.999863 0.99603 178.021)" fill="url(#paint1_linear)" stroke="url(#paint2_linear)" stroke-width="0.1"/>
<rect x="-0.0441303" y="-0.0249931" width="355.204" height="34.7105" transform="matrix(0.866025 -0.5 0.0165799 0.999863 7.96813 181.381)" fill="url(#paint3_linear)" stroke="url(#paint4_linear)" stroke-width="0.1"/>
<circle r="6" transform="matrix(0.884988 -0.465614 0 1 255.31 57.1555)" fill="#F3F3F3"/>
<circle r="6" transform="matrix(0.884988 -0.465614 0 1 277.31 44.1555)" fill="#F3F3F3"/>
<circle r="6" transform="matrix(0.884988 -0.465614 0 1 298.31 31.1555)" fill="#F3F3F3"/>
<circle r="20" transform="matrix(0.896873 -0.442289 0 1 201.423 190.787)" stroke="#C4C4C4" stroke-width="10"/>
<circle r="39" transform="matrix(0.896873 -0.442289 0 1 201.423 190.787)" stroke="#C4C4C4" stroke-width="10"/>
<path d="M201.423 151.787V130.787L194.696 134.104L191.557 156.652L201.423 151.787Z" fill="#C4C4C4"/>
<path d="M201.423 151.787V130.787L194.696 134.104L191.557 156.652L201.423 151.787Z" fill="#C4C4C4"/>
<path d="M201.422 151.787V130.787L208.149 127.47L211.288 146.922L201.422 151.787Z" fill="#C4C4C4"/>
<path d="M201.422 151.787V130.787L208.149 127.47L211.288 146.922L201.422 151.787Z" fill="#C4C4C4"/>
<path d="M202.32 229.345V250.345L195.593 253.662L192.454 234.21L202.32 229.345Z" fill="#C4C4C4"/>
<path d="M202.32 229.345V250.345L195.593 253.662L192.454 234.21L202.32 229.345Z" fill="#C4C4C4"/>
<path d="M202.319 229.345V250.345L209.046 247.028L212.185 224.48L202.319 229.345Z" fill="#C4C4C4"/>
<path d="M202.319 229.345V250.345L209.046 247.028L212.185 224.48L202.319 229.345Z" fill="#C4C4C4"/>
<path d="M166.891 208.092L148.057 217.259L148.018 224.778L166.834 219.12L166.891 208.092Z" fill="#C4C4C4"/>
<path d="M166.891 208.092L148.057 217.259L148.018 224.778L166.834 219.12L166.891 208.092Z" fill="#C4C4C4"/>
<path d="M166.891 208.092L148.057 217.259L148.096 209.74L166.948 197.064L166.891 208.092Z" fill="#C4C4C4"/>
<path d="M166.891 208.092L148.057 217.259L148.096 209.74L166.948 197.064L166.891 208.092Z" fill="#C4C4C4"/>
<path d="M236.851 173.04L255.685 163.873L255.646 171.392L236.794 184.068L236.851 173.04Z" fill="#C4C4C4"/>
<path d="M236.851 173.04L255.685 163.873L255.646 171.392L236.794 184.068L236.851 173.04Z" fill="#C4C4C4"/>
<path d="M236.851 173.04L255.685 163.873L255.724 156.354L236.908 162.013L236.851 173.04Z" fill="#C4C4C4"/>
<path d="M236.851 173.04L255.685 163.873L255.724 156.354L236.908 162.013L236.851 173.04Z" fill="#C4C4C4"/>
<path d="M177.856 230.769L164.752 252.315L169.583 255.151L184.942 234.928L177.856 230.769Z" fill="#C4C4C4"/>
<path d="M177.856 230.769L164.752 252.315L169.583 255.151L184.942 234.928L177.856 230.769Z" fill="#C4C4C4"/>
<path d="M177.856 230.769L164.752 252.315L159.92 249.479L170.77 226.61L177.856 230.769Z" fill="#C4C4C4"/>
<path d="M177.856 230.769L164.752 252.315L159.92 249.479L170.77 226.61L177.856 230.769Z" fill="#C4C4C4"/>
<path d="M225.886 150.363L238.99 128.817L243.821 131.653L232.972 154.522L225.886 150.363Z" fill="#C4C4C4"/>
<path d="M225.886 150.363L238.99 128.817L243.821 131.653L232.972 154.522L225.886 150.363Z" fill="#C4C4C4"/>
<path d="M225.886 150.363L238.99 128.817L234.158 125.982L218.799 146.204L225.886 150.363Z" fill="#C4C4C4"/>
<path d="M225.886 150.363L238.99 128.817L234.158 125.982L218.799 146.204L225.886 150.363Z" fill="#C4C4C4"/>
<path d="M226.048 206.832L238.889 215.862L243.81 208.322L233.265 195.774L226.048 206.832Z" fill="#C4C4C4"/>
<path d="M226.048 206.832L238.889 215.862L243.81 208.322L233.265 195.774L226.048 206.832Z" fill="#C4C4C4"/>
<path d="M226.047 206.832L238.889 215.862L233.968 223.402L218.83 217.891L226.047 206.832Z" fill="#C4C4C4"/>
<path d="M226.047 206.832L238.889 215.862L233.968 223.402L218.83 217.891L226.047 206.832Z" fill="#C4C4C4"/>
<path d="M177.695 174.3L164.853 165.27L169.774 157.73L184.912 163.241L177.695 174.3Z" fill="#C4C4C4"/>
<path d="M177.695 174.3L164.853 165.27L169.774 157.73L184.912 163.241L177.695 174.3Z" fill="#C4C4C4"/>
<path d="M177.695 174.3L164.853 165.27L159.933 172.81L170.478 185.359L177.695 174.3Z" fill="#C4C4C4"/>
<path d="M177.695 174.3L164.853 165.27L159.933 172.81L170.478 185.359L177.695 174.3Z" fill="#C4C4C4"/>
<circle r="12.3428" transform="matrix(0.896873 -0.442289 0 1 130.06 279.206)" stroke="#E14646" stroke-width="10"/>
<circle r="25.5233" transform="matrix(0.896873 -0.442289 0 1 130.06 279.206)" stroke="#E14646" stroke-width="10"/>
<path d="M130.06 252.151V237.583L125.394 239.884L123.216 255.526L130.06 252.151Z" fill="#E14646"/>
<path d="M130.06 252.151V237.583L125.394 239.884L123.216 255.526L130.06 252.151Z" fill="#E14646"/>
<path d="M130.06 252.151V237.583L134.726 235.282L136.904 248.776L130.06 252.151Z" fill="#E14646"/>
<path d="M130.06 252.151V237.583L134.726 235.282L136.904 248.776L130.06 252.151Z" fill="#E14646"/>
<path d="M130.682 305.954V320.522L126.016 322.823L123.838 309.329L130.682 305.954Z" fill="#E14646"/>
<path d="M130.682 305.954V320.522L126.016 322.823L123.838 309.329L130.682 305.954Z" fill="#E14646"/>
<path d="M130.682 305.954V320.522L135.348 318.221L137.526 302.579L130.682 305.954Z" fill="#E14646"/>
<path d="M130.682 305.954V320.522L135.348 318.221L137.526 302.579L130.682 305.954Z" fill="#E14646"/>
<path d="M106.105 291.21L93.0394 297.57L93.0125 302.786L106.065 298.86L106.105 291.21Z" fill="#E14646"/>
<path d="M106.105 291.21L93.0394 297.57L93.0125 302.786L106.065 298.86L106.105 291.21Z" fill="#E14646"/>
<path d="M106.105 291.21L93.0397 297.57L93.0666 292.354L106.144 283.56L106.105 291.21Z" fill="#E14646"/>
<path d="M106.105 291.21L93.0397 297.57L93.0666 292.354L106.144 283.56L106.105 291.21Z" fill="#E14646"/>
<path d="M154.637 266.895L167.702 260.535L167.676 265.751L154.598 274.545L154.637 266.895Z" fill="#E14646"/>
<path d="M154.637 266.895L167.702 260.535L167.676 265.751L154.598 274.545L154.637 266.895Z" fill="#E14646"/>
<path d="M154.637 266.895L167.703 260.535L167.73 255.319L154.677 259.244L154.637 266.895Z" fill="#E14646"/>
<path d="M154.637 266.895L167.703 260.535L167.73 255.319L154.677 259.244L154.637 266.895Z" fill="#E14646"/>
<path d="M113.712 306.942L104.621 321.888L107.973 323.855L118.627 309.827L113.712 306.942Z" fill="#E14646"/>
<path d="M113.712 306.942L104.621 321.888L107.973 323.855L118.627 309.827L113.712 306.942Z" fill="#E14646"/>
<path d="M113.711 306.942L104.621 321.888L101.269 319.921L108.796 304.057L113.711 306.942Z" fill="#E14646"/>
<path d="M113.711 306.942L104.621 321.888L101.269 319.921L108.796 304.057L113.711 306.942Z" fill="#E14646"/>
<path d="M147.03 251.163L156.121 236.216L159.473 238.184L151.946 254.048L147.03 251.163Z" fill="#E14646"/>
<path d="M147.03 251.163L156.121 236.216L159.473 238.184L151.946 254.048L147.03 251.163Z" fill="#E14646"/>
<path d="M147.03 251.163L156.121 236.216L152.769 234.249L142.114 248.278L147.03 251.163Z" fill="#E14646"/>
<path d="M147.03 251.163L156.121 236.216L152.769 234.249L142.114 248.278L147.03 251.163Z" fill="#E14646"/>
<path d="M147.142 290.337L156.051 296.6L159.464 291.37L152.149 282.665L147.142 290.337Z" fill="#E14646"/>
<path d="M147.142 290.337L156.051 296.6L159.464 291.37L152.149 282.665L147.142 290.337Z" fill="#E14646"/>
<path d="M147.143 290.337L156.051 296.6L152.637 301.831L142.136 298.008L147.143 290.337Z" fill="#E14646"/>
<path d="M147.143 290.337L156.051 296.6L152.637 301.831L142.136 298.008L147.143 290.337Z" fill="#E14646"/>
<path d="M113.6 267.768L104.691 261.504L108.105 256.274L118.606 260.096L113.6 267.768Z" fill="#E14646"/>
<path d="M113.6 267.768L104.691 261.504L108.105 256.274L118.606 260.096L113.6 267.768Z" fill="#E14646"/>
<path d="M113.599 267.768L104.691 261.504L101.278 266.735L108.593 275.44L113.599 267.768Z" fill="#E14646"/>
<path d="M113.599 267.768L104.691 261.504L101.278 266.735L108.593 275.44L113.599 267.768Z" fill="#E14646"/>
<defs>
<linearGradient id="paint0_linear" x1="4.5" y1="0" x2="4.5" y2="355.175" gradientUnits="userSpaceOnUse">
<stop stop-color="#E36666"/>
<stop offset="1" stop-color="#CF6262"/>
</linearGradient>
<linearGradient id="paint1_linear" x1="4.1" y1="0" x2="4.1" y2="34.15" gradientUnits="userSpaceOnUse">
<stop stop-color="#BC4D4D"/>
<stop offset="1" stop-color="#914242"/>
</linearGradient>
<linearGradient id="paint2_linear" x1="4.1" y1="0" x2="4.1" y2="34.15" gradientUnits="userSpaceOnUse">
<stop stop-color="#A44747"/>
<stop offset="1" stop-color="#BA4C4C"/>
</linearGradient>
<linearGradient id="paint3_linear" x1="177.552" y1="0" x2="177.552" y2="34.6105" gradientUnits="userSpaceOnUse">
<stop stop-color="#BC4D4D"/>
<stop offset="1" stop-color="#914242"/>
</linearGradient>
<linearGradient id="paint4_linear" x1="177.552" y1="0" x2="177.552" y2="34.6105" gradientUnits="userSpaceOnUse">
<stop stop-color="#B44A4A"/>
<stop offset="1" stop-color="#944343"/>
</linearGradient>
</defs>
</svg>
