<svg width="320" height="406" viewBox="0 0 320 406" fill="none" xmlns="http://www.w3.org/2000/svg">
<rect width="355.104" height="224.597" transform="matrix(0.866025 -0.5 0.0165799 0.999863 7.97363 181.403)" fill="#F3F3F3"/>
<rect width="9" height="355.175" transform="matrix(0.885832 0.464007 -0.865116 0.501572 308.268 0)" fill="url(#paint0_linear)"/>
<rect width="8" height="224" transform="matrix(0.884988 0.465614 0.0165799 0.999863 1 178)" fill="#C4C4C4"/>
<rect x="-0.0450784" y="-0.0732739" width="8.3" height="34.25" transform="matrix(0.884988 0.465614 0.0165799 0.999863 0.99603 178.021)" fill="url(#paint1_linear)" stroke="url(#paint2_linear)" stroke-width="0.1"/>
<rect x="-0.0441303" y="-0.0249931" width="355.204" height="34.7105" transform="matrix(0.866025 -0.5 0.0165799 0.999863 7.96813 181.381)" fill="url(#paint3_linear)" stroke="url(#paint4_linear)" stroke-width="0.1"/>
<circle r="6" transform="matrix(0.884988 -0.465614 0 1 255.31 57.1555)" fill="#F3F3F3"/>
<circle r="6" transform="matrix(0.884988 -0.465614 0 1 277.31 44.1555)" fill="#F3F3F3"/>
<circle r="6" transform="matrix(0.884988 -0.465614 0 1 298.31 31.1555)" fill="#F3F3F3"/>
<circle r="43.5034" transform="matrix(0.884988 -0.465614 0 1 251.5 139.759)" fill="#E14646"/>
<rect width="40.5646" height="57.6522" rx="10" transform="matrix(0.866025 -0.5 0.0165799 0.999863 46.5366 309.176)" fill="#C4C4C4"/>
<rect width="40.5646" height="99.5694" rx="10" transform="matrix(0.866025 -0.5 0.0165799 0.999863 96.3052 236.371)" fill="#C4C4C4"/>
<rect width="40.5646" height="138.249" rx="10" transform="matrix(0.866025 -0.5 0.0165799 0.999863 150.359 164.608)" fill="#C4C4C4"/>
<defs>
<linearGradient id="paint0_linear" x1="4.5" y1="0" x2="4.5" y2="355.175" gradientUnits="userSpaceOnUse">
<stop stop-color="#E36666"/>
<stop offset="1" stop-color="#CF6262"/>
</linearGradient>
<linearGradient id="paint1_linear" x1="4.1" y1="0" x2="4.1" y2="34.15" gradientUnits="userSpaceOnUse">
<stop stop-color="#BC4D4D"/>
<stop offset="1" stop-color="#914242"/>
</linearGradient>
<linearGradient id="paint2_linear" x1="4.1" y1="0" x2="4.1" y2="34.15" gradientUnits="userSpaceOnUse">
<stop stop-color="#A44747"/>
<stop offset="1" stop-color="#BA4C4C"/>
</linearGradient>
<linearGradient id="paint3_linear" x1="177.552" y1="0" x2="177.552" y2="34.6105" gradientUnits="userSpaceOnUse">
<stop stop-color="#BC4D4D"/>
<stop offset="1" stop-color="#914242"/>
</linearGradient>
<linearGradient id="paint4_linear" x1="177.552" y1="0" x2="177.552" y2="34.6105" gradientUnits="userSpaceOnUse">
<stop stop-color="#B44A4A"/>
<stop offset="1" stop-color="#944343"/>
</linearGradient>
</defs>
</svg>
