<svg width="320" height="406" viewBox="0 0 320 406" fill="none" xmlns="http://www.w3.org/2000/svg">
<rect width="355.104" height="224.597" transform="matrix(0.866025 -0.5 0.0165799 0.999863 7.97363 181.403)" fill="#F3F3F3"/>
<rect width="9" height="355.175" transform="matrix(0.885832 0.464007 -0.865116 0.501572 308.268 0)" fill="url(#paint0_linear)"/>
<rect width="8" height="224" transform="matrix(0.884988 0.465614 0.0165799 0.999863 1 178)" fill="#C4C4C4"/>
<rect x="-0.0676176" y="-0.109911" width="8.35" height="34.3" transform="matrix(0.884988 0.465614 0.0165799 0.999863 0.994045 178.031)" fill="url(#paint1_linear)" stroke="url(#paint2_linear)" stroke-width="0.15"/>
<rect x="-0.0882605" y="-0.0499863" width="355.304" height="34.8106" transform="matrix(0.866025 -0.5 0.0165799 0.999863 7.96264 181.359)" fill="url(#paint3_linear)" stroke="url(#paint4_linear)" stroke-width="0.2"/>
<circle r="6" transform="matrix(0.884988 -0.465614 0 1 255.31 57.1555)" fill="#F3F3F3"/>
<circle r="6" transform="matrix(0.884988 -0.465614 0 1 277.31 44.1555)" fill="#F3F3F3"/>
<circle r="6" transform="matrix(0.884988 -0.465614 0 1 298.31 31.1555)" fill="#F3F3F3"/>
<rect width="119.087" height="146.652" rx="10" transform="matrix(0.866025 -0.5 0.0165799 0.999863 51.0103 210.312)" fill="url(#paint5_linear)"/>
<rect width="129.39" height="82.8498" rx="10" transform="matrix(0.866025 -0.5 0.0165799 0.999863 176.34 136.221)" fill="#C4C4C4"/>
<rect x="2.20651" y="1.24966" width="78.9176" height="17.7124" rx="8.85621" transform="matrix(0.866025 -0.5 0.0165799 0.999863 205.586 241.708)" fill="#E14646" stroke="#E14646" stroke-width="5"/>
<defs>
<linearGradient id="paint0_linear" x1="4.5" y1="0" x2="4.5" y2="355.175" gradientUnits="userSpaceOnUse">
<stop stop-color="#E36666"/>
<stop offset="1" stop-color="#CF6262"/>
</linearGradient>
<linearGradient id="paint1_linear" x1="4.1" y1="0" x2="4.1" y2="34.15" gradientUnits="userSpaceOnUse">
<stop stop-color="#BC4D4D"/>
<stop offset="1" stop-color="#914242"/>
</linearGradient>
<linearGradient id="paint2_linear" x1="4.1" y1="0" x2="4.1" y2="34.15" gradientUnits="userSpaceOnUse">
<stop stop-color="#A44747"/>
<stop offset="1" stop-color="#BA4C4C"/>
</linearGradient>
<linearGradient id="paint3_linear" x1="177.552" y1="0" x2="177.552" y2="34.6105" gradientUnits="userSpaceOnUse">
<stop stop-color="#BC4D4D"/>
<stop offset="1" stop-color="#914242"/>
</linearGradient>
<linearGradient id="paint4_linear" x1="177.552" y1="0" x2="177.552" y2="34.6105" gradientUnits="userSpaceOnUse">
<stop stop-color="#B44A4A"/>
<stop offset="1" stop-color="#944343"/>
</linearGradient>
<linearGradient id="paint5_linear" x1="59.5433" y1="0" x2="59.5433" y2="146.652" gradientUnits="userSpaceOnUse">
<stop stop-color="#C4C4C4"/>
<stop offset="1" stop-color="#C4C4C4"/>
</linearGradient>
</defs>
</svg>
