<svg width="50" height="50" viewBox="0 0 50 50" fill="none" xmlns="http://www.w3.org/2000/svg">
<path d="M47.5 0H2.5C1.12168 0 0 1.12168 0 2.5V7.5V47.5C0 48.8783 1.12168 50 2.5 50H47.5C48.8783 50 50 48.8783 50 47.5V7.5V2.5C50 1.12168 48.8783 0 47.5 0ZM1.6667 2.5C1.6667 2.04082 2.04082 1.6667 2.5 1.6667H47.5C47.9592 1.6667 48.3333 2.04082 48.3333 2.5V6.6667H1.6667V2.5ZM48.3333 47.5C48.3333 47.9592 47.9592 48.3333 47.5 48.3333H2.5C2.04082 48.3333 1.6667 47.9592 1.6667 47.5V8.3333H48.3334V47.5H48.3333Z" fill="#BF2419"/>
<path d="M4.1668 4.99961C4.62702 4.99961 5.0001 4.62653 5.0001 4.16631C5.0001 3.70609 4.62702 3.33301 4.1668 3.33301C3.70658 3.33301 3.3335 3.70609 3.3335 4.16631C3.3335 4.62653 3.70658 4.99961 4.1668 4.99961Z" fill="#BF2419"/>
<path d="M7.49981 4.99961C7.96002 4.99961 8.33311 4.62653 8.33311 4.16631C8.33311 3.70609 7.96002 3.33301 7.49981 3.33301C7.03959 3.33301 6.6665 3.70609 6.6665 4.16631C6.6665 4.62653 7.03959 4.99961 7.49981 4.99961Z" fill="#BF2419"/>
<path d="M10.8333 4.99961C11.2935 4.99961 11.6666 4.62653 11.6666 4.16631C11.6666 3.70609 11.2935 3.33301 10.8333 3.33301C10.3731 3.33301 10 3.70609 10 4.16631C10 4.62653 10.3731 4.99961 10.8333 4.99961Z" fill="#BF2419"/>
<path d="M11.1923 27.3886C10.7456 27.3886 10.309 27.3353 9.8823 27.2286C9.45564 27.1153 9.11564 26.9753 8.8623 26.8086L9.3823 25.6886C9.6223 25.8419 9.9123 25.9686 10.2523 26.0686C10.5923 26.1619 10.9256 26.2086 11.2523 26.2086C11.9123 26.2086 12.2423 26.0453 12.2423 25.7186C12.2423 25.5653 12.1523 25.4553 11.9723 25.3886C11.7923 25.3219 11.5156 25.2653 11.1423 25.2186C10.7023 25.1519 10.339 25.0753 10.0523 24.9886C9.76564 24.9019 9.51564 24.7486 9.3023 24.5286C9.09564 24.3086 8.9923 23.9953 8.9923 23.5886C8.9923 23.2486 9.08897 22.9486 9.2823 22.6886C9.4823 22.4219 9.76897 22.2153 10.1423 22.0686C10.5223 21.9219 10.969 21.8486 11.4823 21.8486C11.8623 21.8486 12.239 21.8919 12.6123 21.9786C12.9923 22.0586 13.3056 22.1719 13.5523 22.3186L13.0323 23.4286C12.559 23.1619 12.0423 23.0286 11.4823 23.0286C11.149 23.0286 10.899 23.0753 10.7323 23.1686C10.5656 23.2619 10.4823 23.3819 10.4823 23.5286C10.4823 23.6953 10.5723 23.8119 10.7523 23.8786C10.9323 23.9453 11.219 24.0086 11.6123 24.0686C12.0523 24.1419 12.4123 24.2219 12.6923 24.3086C12.9723 24.3886 13.2156 24.5386 13.4223 24.7586C13.629 24.9786 13.7323 25.2853 13.7323 25.6786C13.7323 26.0119 13.6323 26.3086 13.4323 26.5686C13.2323 26.8286 12.939 27.0319 12.5523 27.1786C12.1723 27.3186 11.719 27.3886 11.1923 27.3886ZM18.9148 24.6386C18.9148 24.6586 18.9048 24.7986 18.8848 25.0586H14.8148C14.8881 25.3919 15.0615 25.6553 15.3348 25.8486C15.6081 26.0419 15.9481 26.1386 16.3548 26.1386C16.6348 26.1386 16.8815 26.0986 17.0948 26.0186C17.3148 25.9319 17.5181 25.7986 17.7048 25.6186L18.5348 26.5186C18.0281 27.0986 17.2881 27.3886 16.3148 27.3886C15.7081 27.3886 15.1715 27.2719 14.7048 27.0386C14.2381 26.7986 13.8781 26.4686 13.6248 26.0486C13.3715 25.6286 13.2448 25.1519 13.2448 24.6186C13.2448 24.0919 13.3681 23.6186 13.6148 23.1986C13.8681 22.7719 14.2115 22.4419 14.6448 22.2086C15.0848 21.9686 15.5748 21.8486 16.1148 21.8486C16.6415 21.8486 17.1181 21.9619 17.5448 22.1886C17.9715 22.4153 18.3048 22.7419 18.5448 23.1686C18.7915 23.5886 18.9148 24.0786 18.9148 24.6386ZM16.1248 23.0286C15.7715 23.0286 15.4748 23.1286 15.2348 23.3286C14.9948 23.5286 14.8481 23.8019 14.7948 24.1486H17.4448C17.3915 23.8086 17.2448 23.5386 17.0048 23.3386C16.7648 23.1319 16.4715 23.0286 16.1248 23.0286ZM21.4634 27.3886C20.8967 27.3886 20.3867 27.2719 19.9334 27.0386C19.4867 26.7986 19.1367 26.4686 18.8834 26.0486C18.6301 25.6286 18.5034 25.1519 18.5034 24.6186C18.5034 24.0853 18.6301 23.6086 18.8834 23.1886C19.1367 22.7686 19.4867 22.4419 19.9334 22.2086C20.3867 21.9686 20.8967 21.8486 21.4634 21.8486C22.0301 21.8486 22.5367 21.9686 22.9834 22.2086C23.4301 22.4419 23.7801 22.7686 24.0334 23.1886C24.2867 23.6086 24.4134 24.0853 24.4134 24.6186C24.4134 25.1519 24.2867 25.6286 24.0334 26.0486C23.7801 26.4686 23.4301 26.7986 22.9834 27.0386C22.5367 27.2719 22.0301 27.3886 21.4634 27.3886ZM21.4634 26.1086C21.8634 26.1086 22.1901 25.9753 22.4434 25.7086C22.7034 25.4353 22.8334 25.0719 22.8334 24.6186C22.8334 24.1653 22.7034 23.8053 22.4434 23.5386C22.1901 23.2653 21.8634 23.1286 21.4634 23.1286C21.0634 23.1286 20.7334 23.2653 20.4734 23.5386C20.2134 23.8053 20.0834 24.1653 20.0834 24.6186C20.0834 25.0719 20.2134 25.4353 20.4734 25.7086C20.7334 25.9753 21.0634 26.1086 21.4634 26.1086Z" fill="#BF2419"/>
<mask id="path-8-inside-1" fill="white">
<path d="M15.4909 30.0281C16.86 31.5486 18.6774 32.5941 20.68 33.0133C22.6827 33.4325 24.7668 33.2037 26.6308 32.36C28.4948 31.5162 30.0421 30.1014 31.0487 28.3201C32.0554 26.5388 32.4692 24.4834 32.2303 22.4513C31.9914 20.4192 31.1123 18.5158 29.72 17.0165C28.3277 15.5172 26.4945 14.4997 24.4857 14.1113C22.4768 13.7228 20.3964 13.9835 18.5456 14.8557C16.6947 15.7279 15.1693 17.1664 14.1901 18.9629L15.6223 19.7435C16.4359 18.2509 17.7032 17.0559 19.2409 16.3312C20.7786 15.6066 22.507 15.39 24.176 15.7127C25.845 16.0354 27.368 16.8808 28.5247 18.1264C29.6815 19.3721 30.4119 20.9534 30.6104 22.6417C30.8088 24.33 30.465 26.0376 29.6287 27.5176C28.7924 28.9975 27.5069 30.173 25.9582 30.874C24.4096 31.575 22.6781 31.7651 21.0142 31.4168C19.3504 31.0685 17.8405 30.1999 16.703 28.9366L15.4909 30.0281Z"/>
</mask>
<path d="M15.4909 30.0281C16.86 31.5486 18.6774 32.5941 20.68 33.0133C22.6827 33.4325 24.7668 33.2037 26.6308 32.36C28.4948 31.5162 30.0421 30.1014 31.0487 28.3201C32.0554 26.5388 32.4692 24.4834 32.2303 22.4513C31.9914 20.4192 31.1123 18.5158 29.72 17.0165C28.3277 15.5172 26.4945 14.4997 24.4857 14.1113C22.4768 13.7228 20.3964 13.9835 18.5456 14.8557C16.6947 15.7279 15.1693 17.1664 14.1901 18.9629L15.6223 19.7435C16.4359 18.2509 17.7032 17.0559 19.2409 16.3312C20.7786 15.6066 22.507 15.39 24.176 15.7127C25.845 16.0354 27.368 16.8808 28.5247 18.1264C29.6815 19.3721 30.4119 20.9534 30.6104 22.6417C30.8088 24.33 30.465 26.0376 29.6287 27.5176C28.7924 28.9975 27.5069 30.173 25.9582 30.874C24.4096 31.575 22.6781 31.7651 21.0142 31.4168C19.3504 31.0685 17.8405 30.1999 16.703 28.9366L15.4909 30.0281Z" stroke="#BF2419" stroke-width="4" mask="url(#path-8-inside-1)"/>
<line x1="29.7414" y1="30.9309" x2="36.2021" y2="38.6305" stroke="#BF2419" stroke-width="2" stroke-linecap="round" stroke-linejoin="round"/>
</svg>
