<svg width="50" height="50" viewBox="0 0 50 50" fill="none" xmlns="http://www.w3.org/2000/svg">
<path d="M47.5 0H2.5C1.12168 0 0 1.12168 0 2.5V7.5V47.5C0 48.8783 1.12168 50 2.5 50H47.5C48.8783 50 50 48.8783 50 47.5V7.5V2.5C50 1.12168 48.8783 0 47.5 0ZM1.6667 2.5C1.6667 2.04004 2.04004 1.6667 2.5 1.6667H47.5C47.96 1.6667 48.3333 2.04004 48.3333 2.5V6.6667H1.6667V2.5ZM48.3333 47.5C48.3333 47.96 47.96 48.3333 47.5 48.3333H2.5C2.04004 48.3333 1.6667 47.96 1.6667 47.5V8.3333H48.3334V47.5H48.3333Z" fill="#BF2419"/>
<path d="M4.1668 3.33301C3.70596 3.33301 3.3335 3.70547 3.3335 4.16631C3.3335 4.62715 3.70596 4.99961 4.1668 4.99961C4.62764 4.99961 5.0001 4.62715 5.0001 4.16631C5.0001 3.70547 4.62764 3.33301 4.1668 3.33301Z" fill="#BF2419"/>
<path d="M7.49981 3.33301C7.03897 3.33301 6.6665 3.70547 6.6665 4.16631C6.6665 4.62715 7.03897 4.99971 7.49981 4.99971C7.96064 4.99971 8.33311 4.62725 8.33311 4.16641C8.33311 3.70557 7.96064 3.33301 7.49981 3.33301Z" fill="#BF2419"/>
<path d="M10.8333 3.33301C10.3725 3.33301 10 3.70547 10 4.16631C10 4.62715 10.3725 4.99961 10.8333 4.99961C11.2941 4.99961 11.6666 4.62715 11.6666 4.16631C11.6666 3.70547 11.2941 3.33301 10.8333 3.33301Z" fill="#BF2419"/>
<path d="M13.8333 18.6666H19.6666C20.1274 18.6666 20.4999 18.2941 20.4999 17.8333C20.4999 17.3725 20.1274 17 19.6666 17H13.8333C13.3725 17 13 17.3725 13 17.8333C13 18.2941 13.3725 18.6666 13.8333 18.6666Z" fill="#BF2419"/>
<path d="M24.6663 18.6666H35.4996C35.9604 18.6666 36.3329 18.2941 36.3329 17.8333C36.3329 17.3725 35.9604 17 35.4996 17H24.6663C24.2055 17 23.833 17.3725 23.833 17.8333C23.833 18.2941 24.2055 18.6666 24.6663 18.6666Z" fill="#BF2419"/>
<path d="M13.8333 23.6666H24.6666C25.1274 23.6666 25.4999 23.2941 25.4999 22.8333C25.4999 22.3725 25.1274 22 24.6666 22H13.8333C13.3725 22 13 22.3725 13 22.8333C13 23.2941 13.3725 23.6666 13.8333 23.6666Z" fill="#BF2419"/>
<path d="M33.0001 22H29.6668C29.206 22 28.8335 22.3725 28.8335 22.8333C28.8335 23.2941 29.206 23.6666 29.6668 23.6666H33.0001C33.4609 23.6666 33.8334 23.2941 33.8334 22.8333C33.8334 22.3725 33.4609 22 33.0001 22Z" fill="#BF2419"/>
<path d="M13.8333 28.6666H19.6666C20.1274 28.6666 20.4999 28.2941 20.4999 27.8333C20.4999 27.3725 20.1274 27 19.6666 27H13.8333C13.3725 27 13 27.3725 13 27.8333C13 28.2941 13.3725 28.6666 13.8333 28.6666Z" fill="#BF2419"/>
<path d="M33.0001 27H24.6668C24.206 27 23.8335 27.3725 23.8335 27.8333C23.8335 28.2941 24.206 28.6666 24.6668 28.6666H33.0001C33.4609 28.6666 33.8334 28.2941 33.8334 27.8333C33.8334 27.3725 33.4609 27 33.0001 27Z" fill="#BF2419"/>
<path d="M13.8333 33.6666H24.6666C25.1274 33.6666 25.4999 33.2941 25.4999 32.8333C25.4999 32.3725 25.1274 32 24.6666 32H13.8333C13.3725 32 13 32.3725 13 32.8333C13 33.2941 13.3725 33.6666 13.8333 33.6666Z" fill="#BF2419"/>
<path d="M33.0001 32H29.6668C29.206 32 28.8335 32.3725 28.8335 32.8333C28.8335 33.2941 29.206 33.6666 29.6668 33.6666H33.0001C33.4609 33.6666 33.8334 33.2941 33.8334 32.8333C33.8334 32.3726 33.4609 32 33.0001 32Z" fill="#BF2419"/>
</svg>
