<svg width="50" height="50" viewBox="0 0 50 50" fill="none" xmlns="http://www.w3.org/2000/svg">
<path d="M47.5 0H2.5C1.12168 0 0 1.12168 0 2.5V7.5V47.5C0 48.8783 1.12168 50 2.5 50H47.5C48.8783 50 50 48.8783 50 47.5V7.5V2.5C50 1.12168 48.8783 0 47.5 0ZM1.6667 2.5C1.6667 2.04082 2.04082 1.6667 2.5 1.6667H47.5C47.9592 1.6667 48.3333 2.04082 48.3333 2.5V6.6667H1.6667V2.5ZM48.3333 47.5C48.3333 47.9592 47.9592 48.3333 47.5 48.3333H2.5C2.04082 48.3333 1.6667 47.9592 1.6667 47.5V8.3333H48.3334V47.5H48.3333Z" fill="#BF2419"/>
<path d="M4.1668 4.99961C4.62702 4.99961 5.0001 4.62653 5.0001 4.16631C5.0001 3.70609 4.62702 3.33301 4.1668 3.33301C3.70658 3.33301 3.3335 3.70609 3.3335 4.16631C3.3335 4.62653 3.70658 4.99961 4.1668 4.99961Z" fill="#BF2419"/>
<path d="M7.49981 4.99961C7.96002 4.99961 8.33311 4.62653 8.33311 4.16631C8.33311 3.70609 7.96002 3.33301 7.49981 3.33301C7.03959 3.33301 6.6665 3.70609 6.6665 4.16631C6.6665 4.62653 7.03959 4.99961 7.49981 4.99961Z" fill="#BF2419"/>
<path d="M10.8333 4.99961C11.2935 4.99961 11.6666 4.62653 11.6666 4.16631C11.6666 3.70609 11.2935 3.33301 10.8333 3.33301C10.3731 3.33301 10 3.70609 10 4.16631C10 4.62653 10.3731 4.99961 10.8333 4.99961Z" fill="#BF2419"/>
<path d="M40.8203 17.2852L37.2856 21.0324M37.2856 21.0324L33.2564 33.3984H17.048L13.0859 21.0324H37.2856Z" stroke="#BF2419" stroke-width="2" stroke-linecap="round" stroke-linejoin="round"/>
<ellipse cx="18.0664" cy="38.3301" rx="2.24609" ry="2.19727" fill="#BF2419"/>
<ellipse cx="32.3242" cy="38.3301" rx="2.24609" ry="2.19727" fill="#BF2419"/>
</svg>
