<svg width="50" height="50" viewBox="0 0 50 50" fill="none" xmlns="http://www.w3.org/2000/svg">
<path d="M47.5 0H2.5C1.12168 0 0 1.12168 0 2.5V7.5V47.5C0 48.8783 1.12168 50 2.5 50H47.5C48.8783 50 50 48.8783 50 47.5V7.5V2.5C50 1.12168 48.8783 0 47.5 0ZM1.6667 2.5C1.6667 2.04004 2.04082 1.6667 2.5 1.6667H47.5C47.96 1.6667 48.3333 2.04004 48.3333 2.5V6.6667H1.6667V2.5ZM48.3333 47.5C48.3333 47.96 47.96 48.3333 47.5 48.3333H2.5C2.04082 48.3333 1.6667 47.96 1.6667 47.5V8.3333H48.3334V47.5H48.3333Z" fill="#BF2419"/>
<path d="M4.16631 3.33301C3.70635 3.33301 3.33301 3.70547 3.33301 4.16631C3.33301 4.62715 3.70635 4.99961 4.16631 4.99961C4.62627 4.99961 4.99961 4.62715 4.99961 4.16631C4.99961 3.70547 4.62627 3.33301 4.16631 3.33301Z" fill="#BF2419"/>
<path d="M7.50029 3.33301C7.04033 3.33301 6.66699 3.70547 6.66699 4.16631C6.66699 4.62715 7.04033 4.99971 7.50029 4.99971C7.96025 4.99971 8.33359 4.62725 8.33359 4.16641C8.33359 3.70557 7.96025 3.33301 7.50029 3.33301Z" fill="#BF2419"/>
<path d="M10.8333 3.33301C10.3733 3.33301 10 3.70547 10 4.16631C10 4.62715 10.3733 4.99961 10.8333 4.99961C11.2933 4.99961 11.6666 4.62715 11.6666 4.16631C11.6666 3.70547 11.2934 3.33301 10.8333 3.33301Z" fill="#BF2419"/>
<path d="M5.00029 24.1663H16.667C17.127 24.1663 17.5003 23.7938 17.5003 23.333V11.6663C17.5003 11.2055 17.127 10.833 16.667 10.833H5.00029C4.54033 10.833 4.16699 11.2055 4.16699 11.6663V23.333C4.16699 23.7937 4.54033 24.1663 5.00029 24.1663ZM5.83359 12.4996H15.8336V22.4996H5.83359V12.4996Z" fill="#BF2419"/>
<path d="M35.0003 30H15.0003C14.5403 30 14.167 30.3725 14.167 30.8333V45.8333C14.167 46.2941 14.5403 46.6666 15.0003 46.6666H35.0003C35.4602 46.6666 35.8336 46.2941 35.8336 45.8333V30.8333C35.8336 30.3725 35.4602 30 35.0003 30ZM34.167 45H15.8336V31.6667H34.1669V45H34.167Z" fill="#BF2419"/>
<path d="M20.1668 42.1666C20.331 42.385 20.581 42.5 20.8343 42.5C21.0077 42.5 21.1835 42.4458 21.3335 42.3333C21.7019 42.0574 21.776 41.5349 21.5002 41.1666L19.3752 38.3333L21.5002 35.5C21.7761 35.1316 21.7019 34.6091 21.3335 34.3333C20.9652 34.0583 20.4427 34.1316 20.1668 34.5L17.6668 37.8333C17.4444 38.1299 17.4444 38.5366 17.6668 38.8333L20.1668 42.1666Z" fill="#BF2419"/>
<path d="M28.6664 42.3332C28.8164 42.4457 28.9923 42.4999 29.1655 42.4999C29.4188 42.4999 29.6689 42.3848 29.833 42.1665L32.333 38.8333C32.5555 38.5366 32.5555 38.1299 32.333 37.8333L29.833 34.5C29.558 34.1316 29.0363 34.0583 28.6663 34.3333C28.2979 34.6091 28.2238 35.1316 28.4996 35.5L30.6246 38.3333L28.4996 41.1666C28.2239 41.5348 28.298 42.0574 28.6664 42.3332Z" fill="#BF2419"/>
<path d="M23.024 43.2741C23.1256 43.3149 23.2298 43.3332 23.3331 43.3332C23.664 43.3332 23.9765 43.1358 24.1073 42.8091L27.4406 34.4758C27.6114 34.0483 27.4039 33.5633 26.9764 33.3925C26.5472 33.2201 26.0639 33.4291 25.8931 33.8576L22.5598 42.1909C22.389 42.6182 22.5965 43.1032 23.024 43.2741Z" fill="#BF2419"/>
<path d="M23.3333 13.3336H45C45.4608 13.3336 45.8333 12.9611 45.8333 12.5003C45.8333 12.0395 45.4608 11.667 45 11.667H23.3333C22.8733 11.667 22.5 12.0395 22.5 12.5003C22.5 12.9611 22.8733 13.3336 23.3333 13.3336Z" fill="#BF2419"/>
<path d="M23.3333 18.3336H45C45.4608 18.3336 45.8333 17.9611 45.8333 17.5003C45.8333 17.0395 45.4608 16.667 45 16.667H23.3333C22.8733 16.667 22.5 17.0395 22.5 17.5003C22.5 17.9611 22.8733 18.3336 23.3333 18.3336Z" fill="#BF2419"/>
<path d="M23.3333 23.3336H45C45.4608 23.3336 45.8333 22.9611 45.8333 22.5003C45.8333 22.0395 45.4608 21.667 45 21.667H23.3333C22.8733 21.667 22.5 22.0395 22.5 22.5003C22.5 22.9611 22.8733 23.3336 23.3333 23.3336Z" fill="#BF2419"/>
</svg>
