<svg width="30" height="50" viewBox="0 0 30 50" fill="none" xmlns="http://www.w3.org/2000/svg">
<path d="M10.0003 15.833C9.53945 15.833 9.16699 16.2063 9.16699 16.6663C9.16699 17.1263 9.53945 17.4996 10.0003 17.4996C10.4611 17.4996 10.8336 17.1263 10.8336 16.6663C10.8336 16.2063 10.4611 15.833 10.0003 15.833Z" fill="#BF2419"/>
<path d="M13.3333 15.833C12.8725 15.833 12.5 16.2063 12.5 16.6663C12.5 17.1263 12.8725 17.4996 13.3333 17.4996C13.7941 17.4996 14.1666 17.1263 14.1666 16.6663C14.1666 16.2063 13.7941 15.833 13.3333 15.833Z" fill="#BF2419"/>
<path d="M29.1666 42.4984V5.83486C29.1666 5.83437 29.1667 5.83389 29.1667 5.8333C29.1667 5.83272 29.1666 5.83232 29.1666 5.83174V3.30088C29.1666 1.48086 27.6857 0 25.8648 0H4.13486C2.31406 0 0.833203 1.48086 0.833203 3.30088V7.5001C0.372363 7.5001 0 7.87344 0 8.3334V9.1667C0 9.62666 0.372461 10 0.833203 10V10.8333C0.372363 10.8333 0 11.2066 0 11.6666V12.5C0 12.96 0.372461 13.3333 0.833203 13.3333V14.1666C0.372363 14.1666 0 14.5399 0 14.9999V15.8332C0 16.2932 0.372461 16.6665 0.833203 16.6665V46.6992C0.833203 48.5192 2.31406 50 4.13486 50H25.8648C27.6856 50 29.1665 48.5191 29.1665 46.6992V42.5016C29.1665 42.5011 29.1666 42.5006 29.1666 42.5C29.1666 42.4994 29.1666 42.499 29.1666 42.4984ZM15 47.5C14.0809 47.5 13.3333 46.7525 13.3333 45.8333C13.3333 44.9142 14.0808 44.1666 15 44.1666C15.9191 44.1666 16.6667 44.9141 16.6667 45.8333C16.6666 46.7525 15.9191 47.5 15 47.5ZM2.4999 6.6667H27.4999V41.6667H2.4999V6.6667ZM4.13486 1.6667H25.8648C26.7665 1.6667 27.4998 2.4 27.4998 3.30088V5H2.4998V3.30088C2.4999 2.4 3.2332 1.6667 4.13486 1.6667ZM2.4999 46.6992V43.3334H12.7984C12.1052 43.9446 11.6666 44.8384 11.6666 45.8334C11.6666 46.8284 12.1051 47.7222 12.7984 48.3334H4.13486C3.2332 48.3333 2.4999 47.6 2.4999 46.6992ZM25.8648 48.3333H17.2015C17.8947 47.7221 18.3333 46.8283 18.3333 45.8333C18.3333 44.8383 17.8948 43.9445 17.2015 43.3333H27.4998V46.6992C27.4999 47.6 26.7666 48.3333 25.8648 48.3333Z" fill="#BF2419"/>
<path d="M14.1663 4.1666H18.333C18.7938 4.1666 19.1663 3.79326 19.1663 3.3333C19.1663 2.87334 18.7938 2.5 18.333 2.5H14.1663C13.7055 2.5 13.333 2.87334 13.333 3.3333C13.333 3.79326 13.7055 4.1666 14.1663 4.1666Z" fill="#BF2419"/>
<path d="M10.8333 4.1666H11.6666C12.1274 4.1666 12.4999 3.79326 12.4999 3.3333C12.4999 2.87334 12.1274 2.5 11.6666 2.5H10.8333C10.3725 2.5 10 2.87334 10 3.3333C10 3.79326 10.3725 4.1666 10.8333 4.1666Z" fill="#BF2419"/>
<path d="M9.75587 12.7395L6.43341 9.41118C6.10753 9.0853 5.58009 9.08618 5.25421 9.4103C4.92843 9.73618 4.92843 10.2636 5.25333 10.5895L7.98917 13.3287L5.25255 16.0787C4.92755 16.4053 4.92921 16.9329 5.25587 17.2579C5.41749 17.4195 5.63087 17.5003 5.84337 17.5003C6.05753 17.5003 6.27169 17.4187 6.43419 17.2553L9.75665 13.9162C10.0809 13.5904 10.0801 13.0637 9.75587 12.7395Z" fill="#BF2419"/>
</svg>
