<svg width="50" height="50" viewBox="0 0 50 50" fill="none" xmlns="http://www.w3.org/2000/svg">
<path d="M47.5 0H2.5C1.12168 0 0 1.12168 0 2.5V7.5V47.5C0 48.8783 1.12168 50 2.5 50H47.5C48.8783 50 50 48.8783 50 47.5V7.5V2.5C50 1.12168 48.8783 0 47.5 0ZM1.6667 2.5C1.6667 2.04082 2.04082 1.6667 2.5 1.6667H47.5C47.9592 1.6667 48.3333 2.04082 48.3333 2.5V6.6667H1.6667V2.5ZM48.3333 47.5C48.3333 47.9592 47.9592 48.3333 47.5 48.3333H2.5C2.04082 48.3333 1.6667 47.9592 1.6667 47.5V8.3333H48.3334V47.5H48.3333Z" fill="#BF2419"/>
<path d="M4.16631 4.99961C4.62653 4.99961 4.99961 4.62653 4.99961 4.16631C4.99961 3.70609 4.62653 3.33301 4.16631 3.33301C3.70609 3.33301 3.33301 3.70609 3.33301 4.16631C3.33301 4.62653 3.70609 4.99961 4.16631 4.99961Z" fill="#BF2419"/>
<path d="M5.00029 20.8336C5.46051 20.8336 5.83359 20.4605 5.83359 20.0003C5.83359 19.5401 5.46051 19.167 5.00029 19.167C4.54007 19.167 4.16699 19.5401 4.16699 20.0003C4.16699 20.4605 4.54007 20.8336 5.00029 20.8336Z" fill="#BF2419"/>
<path d="M7.50029 4.99961C7.96051 4.99961 8.33359 4.62653 8.33359 4.16631C8.33359 3.70609 7.96051 3.33301 7.50029 3.33301C7.04007 3.33301 6.66699 3.70609 6.66699 4.16631C6.66699 4.62653 7.04007 4.99961 7.50029 4.99961Z" fill="#BF2419"/>
<path d="M10.8333 4.99961C11.2935 4.99961 11.6666 4.62653 11.6666 4.16631C11.6666 3.70609 11.2935 3.33301 10.8333 3.33301C10.3731 3.33301 10 3.70609 10 4.16631C10 4.62653 10.3731 4.99961 10.8333 4.99961Z" fill="#BF2419"/>
<path d="M8.57742 20.589C8.73992 20.7515 8.9533 20.8332 9.16658 20.8332C9.37996 20.8332 9.59324 20.7515 9.75574 20.589L13.9224 16.4223C14.2483 16.0965 14.2483 15.5698 13.9224 15.244L9.75574 11.0774C9.42996 10.7515 8.9032 10.7515 8.57742 11.0774C8.25164 11.4033 8.25154 11.93 8.57742 12.2557L12.155 15.8333L8.57742 19.4108C8.25154 19.7365 8.25154 20.2633 8.57742 20.589Z" fill="#BF2419"/>
</svg>
