<svg width="46" height="58" viewBox="0 0 46 58" fill="none" xmlns="http://www.w3.org/2000/svg">
<path d="M45.5981 12.483C45.5977 12.4705 45.5971 12.4582 45.5963 12.4458C45.5936 12.4083 45.5893 12.3713 45.5825 12.3352C45.5819 12.3321 45.5817 12.3289 45.5811 12.326C45.5728 12.2848 45.5613 12.2449 45.5479 12.2059C45.5451 12.1978 45.5421 12.1898 45.539 12.1818C45.5254 12.1453 45.51 12.1097 45.4922 12.0755C45.4906 12.0726 45.4894 12.0695 45.4879 12.0666C45.4682 12.03 45.4458 11.9952 45.4217 11.9616C45.4162 11.9538 45.4104 11.9464 45.4046 11.9387C45.379 11.9051 45.3519 11.8727 45.3221 11.8428L33.9597 0.480406C33.9299 0.450668 33.8975 0.423705 33.864 0.398073C33.856 0.39197 33.8481 0.385978 33.84 0.380097C33.8071 0.356462 33.7729 0.334381 33.7368 0.315074C33.7318 0.312411 33.7266 0.310302 33.7215 0.307639C33.6899 0.291439 33.6573 0.277236 33.6238 0.264586C33.6137 0.260814 33.6036 0.25693 33.5934 0.25349C33.556 0.240841 33.5179 0.229856 33.4787 0.221866C33.4715 0.220424 33.4641 0.219869 33.4569 0.218537C33.425 0.212878 33.3927 0.208884 33.3599 0.206554C33.3454 0.205444 33.3309 0.204778 33.3164 0.204334C33.3076 0.204113 33.2991 0.203003 33.2903 0.203003H1.09673C0.574107 0.203003 0.149902 0.627207 0.149902 1.14983V56.0682C0.149902 56.5908 0.574107 57.015 1.09673 57.015H44.6526C45.1753 57.015 45.5995 56.5908 45.5995 56.0682V12.5123C45.5996 12.5024 45.5984 12.4927 45.5981 12.483ZM34.2372 3.43552L42.367 11.5653H34.2372V3.43552ZM2.04368 55.1213V2.09667H32.3435V12.5123C32.3435 13.0349 32.7677 13.4591 33.2903 13.4591H43.7059V55.1213H2.04368Z" fill="#BF2419"/>
<path d="M37.0777 17.2466H28.5559V8.72482C28.5559 8.20219 28.1317 7.77798 27.6091 7.77798H8.67169C8.14906 7.77798 7.72485 8.20219 7.72485 8.72482V48.4933C7.72485 49.0159 8.14906 49.4401 8.67169 49.4401H37.0777C37.6004 49.4401 38.0246 49.0159 38.0246 48.4933V18.1935C38.0246 17.6707 37.6004 17.2466 37.0777 17.2466ZM36.1309 47.5463H9.61852V9.67165H26.6621V18.1935C26.6621 18.7161 27.0864 19.1403 27.609 19.1403H36.1308V47.5463H36.1309Z" fill="#BF2419"/>
<path d="M11.5122 24.8215C11.5122 26.3876 12.7867 27.6621 14.3528 27.6621H31.3964C32.9625 27.6621 34.237 26.3876 34.237 24.8215C34.237 23.2554 32.9625 21.9809 31.3964 21.9809H14.3528C12.7867 21.9809 11.5122 23.2554 11.5122 24.8215ZM32.3433 24.8215C32.3433 25.3432 31.9182 25.7683 31.3964 25.7683H14.3528C13.8311 25.7683 13.406 25.3432 13.406 24.8215C13.406 24.2998 13.8311 23.8747 14.3528 23.8747H31.3964C31.9182 23.8747 32.3433 24.2998 32.3433 24.8215Z" fill="#BF2419"/>
<path d="M31.3964 30.5027H14.3528C12.7867 30.5027 11.5122 31.7772 11.5122 33.3433C11.5122 34.9094 12.7867 36.1839 14.3528 36.1839H31.3964C32.9625 36.1839 34.237 34.9094 34.237 33.3433C34.237 31.7772 32.9625 30.5027 31.3964 30.5027ZM31.3964 34.2902H14.3528C13.8311 34.2902 13.406 33.8651 13.406 33.3433C13.406 32.8216 13.8311 32.3965 14.3528 32.3965H31.3964C31.9182 32.3965 32.3433 32.8216 32.3433 33.3433C32.3433 33.8651 31.9182 34.2902 31.3964 34.2902Z" fill="#BF2419"/>
<path d="M31.3964 39.0245H14.3528C12.7867 39.0245 11.5122 40.299 11.5122 41.8651C11.5122 43.4312 12.7867 44.7057 14.3528 44.7057H31.3964C32.9625 44.7057 34.237 43.4312 34.237 41.8651C34.237 40.299 32.9625 39.0245 31.3964 39.0245ZM31.3964 42.812H14.3528C13.8311 42.812 13.406 42.3869 13.406 41.8651C13.406 41.3434 13.8311 40.9183 14.3528 40.9183H31.3964C31.9182 40.9183 32.3433 41.3434 32.3433 41.8651C32.3433 42.3869 31.9182 42.812 31.3964 42.812Z" fill="#BF2419"/>
</svg>
