<svg width="62" height="62" viewBox="0 0 62 62" fill="none" xmlns="http://www.w3.org/2000/svg">
<path d="M5.36362 6.35765C5.93012 6.35765 6.38935 5.89841 6.38935 5.33192C6.38935 4.76542 5.93012 4.30618 5.36362 4.30618C4.79713 4.30618 4.33789 4.76542 4.33789 5.33192C4.33789 5.89841 4.79713 6.35765 5.36362 6.35765Z" fill="#BF2419"/>
<path d="M9.46665 6.35765C10.0331 6.35765 10.4924 5.89841 10.4924 5.33192C10.4924 4.76542 10.0331 4.30618 9.46665 4.30618C8.90015 4.30618 8.44092 4.76542 8.44092 5.33192C8.44092 5.89841 8.90015 6.35765 9.46665 6.35765Z" fill="#BF2419"/>
<path d="M13.5697 6.35765C14.1362 6.35765 14.5954 5.89841 14.5954 5.33192C14.5954 4.76542 14.1362 4.30618 13.5697 4.30618C13.0032 4.30618 12.5439 4.76542 12.5439 5.33192C12.5439 5.89841 13.0032 6.35765 13.5697 6.35765Z" fill="#BF2419"/>
<path d="M7.41514 16.6154H9.46672C10.0329 16.6154 10.4925 16.1559 10.4925 15.5897C10.4925 15.0235 10.0329 14.564 9.46672 14.564H7.41514C6.84896 14.564 6.3894 15.0235 6.3894 15.5897C6.3894 16.1559 6.84896 16.6154 7.41514 16.6154Z" fill="#BF2419"/>
<path d="M13.5697 16.6154H42.2913C42.8574 16.6154 43.317 16.1559 43.317 15.5897C43.317 15.0235 42.8574 14.564 42.2913 14.564H13.5697C13.0035 14.564 12.5439 15.0235 12.5439 15.5897C12.5439 16.1559 13.0035 16.6154 13.5697 16.6154Z" fill="#BF2419"/>
<path d="M46.3944 16.6154H50.4974C51.0647 16.6154 51.5232 16.1559 51.5232 15.5897C51.5232 15.0235 51.0647 14.564 50.4974 14.564H46.3944C45.8282 14.564 45.3687 15.0235 45.3687 15.5897C45.3687 16.1559 45.8281 16.6154 46.3944 16.6154Z" fill="#BF2419"/>
<path d="M7.41514 22.7701H31.0079C31.5741 22.7701 32.0337 22.3105 32.0337 21.7443C32.0337 21.1782 31.5741 20.7186 31.0079 20.7186H7.41514C6.84896 20.7186 6.3894 21.1782 6.3894 21.7443C6.3894 22.3105 6.84896 22.7701 7.41514 22.7701Z" fill="#BF2419"/>
<path d="M50.4975 20.7185H35.1109C34.5448 20.7185 34.0852 21.178 34.0852 21.7442C34.0852 22.3104 34.5448 22.7699 35.1109 22.7699H50.4975C51.0648 22.7699 51.5233 22.3104 51.5233 21.7442C51.5233 21.178 51.0648 20.7185 50.4975 20.7185Z" fill="#BF2419"/>
<path d="M7.41514 28.9247H9.46672C10.0329 28.9247 10.4925 28.4651 10.4925 27.899C10.4925 27.3328 10.0329 26.8732 9.46672 26.8732H7.41514C6.84896 26.8732 6.3894 27.3328 6.3894 27.899C6.3894 28.4651 6.84896 28.9247 7.41514 28.9247Z" fill="#BF2419"/>
<path d="M43.3171 27.8988C43.3171 27.3327 42.8576 26.8731 42.2914 26.8731H13.5697C13.0035 26.8731 12.5439 27.3327 12.5439 27.8988C12.5439 28.465 13.0035 28.9246 13.5697 28.9246H42.2913C42.8576 28.9247 43.3171 28.4651 43.3171 27.8988Z" fill="#BF2419"/>
<path d="M50.4974 26.8731H46.3944C45.8282 26.8731 45.3687 27.3327 45.3687 27.8988C45.3687 28.465 45.8282 28.9246 46.3944 28.9246H50.4974C51.0647 28.9246 51.5232 28.465 51.5232 27.8988C51.5232 27.3327 51.0647 26.8731 50.4974 26.8731Z" fill="#BF2419"/>
<path d="M7.41514 35.0793H31.0079C31.5741 35.0793 32.0337 34.6198 32.0337 34.0536C32.0337 33.4874 31.5741 33.0279 31.0079 33.0279H7.41514C6.84896 33.0279 6.3894 33.4874 6.3894 34.0536C6.3894 34.6198 6.84896 35.0793 7.41514 35.0793Z" fill="#BF2419"/>
<path d="M50.4975 33.0277H35.1109C34.5448 33.0277 34.0852 33.4873 34.0852 34.0535C34.0852 34.6197 34.5448 35.0792 35.1109 35.0792H50.4975C51.0648 35.0792 51.5233 34.6197 51.5233 34.0535C51.5233 33.4873 51.0648 33.0277 50.4975 33.0277Z" fill="#BF2419"/>
<path d="M7.41514 41.234H9.46672C10.0329 41.234 10.4925 40.7744 10.4925 40.2082C10.4925 39.642 10.0329 39.1825 9.46672 39.1825H7.41514C6.84896 39.1825 6.3894 39.642 6.3894 40.2082C6.3894 40.7744 6.84896 41.234 7.41514 41.234Z" fill="#BF2419"/>
<path d="M42.2913 39.1824H13.5697C13.0035 39.1824 12.5439 39.6419 12.5439 40.2081C12.5439 40.7743 13.0035 41.2338 13.5697 41.2338H42.2913C42.8574 41.2338 43.317 40.7743 43.317 40.2081C43.3171 39.6419 42.8576 39.1824 42.2913 39.1824Z" fill="#BF2419"/>
<path d="M31.0079 45.337H7.41514C6.84896 45.337 6.3894 45.7966 6.3894 46.3627C6.3894 46.9289 6.84896 47.3885 7.41514 47.3885H31.0079C31.5741 47.3885 32.0337 46.9289 32.0337 46.3627C32.0337 45.7966 31.5741 45.337 31.0079 45.337Z" fill="#BF2419"/>
<path d="M57.6777 41.7683V9.44108C57.6777 9.43904 57.678 9.437 57.678 9.43495V3.28032C57.678 1.58371 56.2973 0.203003 54.6007 0.203003H3.31205C1.61544 0.203003 0.234736 1.58371 0.234736 3.28032V9.42882C0.234615 9.43099 0.234375 9.43291 0.234375 9.43495V54.569C0.234375 56.2656 1.61508 57.6463 3.31169 57.6463H41.8003C43.8717 60.1508 47.0015 61.7493 50.4975 61.7493C56.7189 61.7493 61.7811 56.6871 61.7811 50.4658C61.7811 46.9697 60.1823 43.8397 57.6777 41.7683ZM2.2862 3.28032C2.2862 2.7151 2.74672 2.25459 3.31193 2.25459H54.6006C55.1668 2.25459 55.6263 2.7151 55.6263 3.28032V8.40922H2.2862V3.28032ZM3.31169 55.5947C2.74647 55.5947 2.28596 55.1342 2.28596 54.569V10.4608H55.6261V40.4169C54.0864 39.6279 52.343 39.1824 50.4975 39.1824C46.1218 39.1824 42.3196 41.6867 40.4487 45.337H35.1109C34.5448 45.337 34.0852 45.7966 34.0852 46.3627C34.0852 46.9289 34.5448 47.3885 35.1109 47.3885H39.6406C39.3628 48.3671 39.214 49.3994 39.214 50.4658C39.214 52.3113 39.6595 54.055 40.4487 55.5947H3.31169ZM50.4975 59.6979C47.5172 59.6979 44.8635 58.2764 43.1744 56.0774C43.1419 56.0256 43.105 55.9771 43.064 55.932C41.9348 54.4006 41.2656 52.51 41.2656 50.4659C41.2656 45.3761 45.4077 41.234 50.4975 41.234C52.5399 41.234 54.4284 41.9017 55.959 43.0288C56.0068 43.0725 56.0585 43.1119 56.1138 43.1461C58.3102 44.8354 59.7295 47.4877 59.7295 50.4659C59.7295 55.5557 55.5884 59.6979 50.4975 59.6979Z" fill="#BF2419"/>
<path d="M47.0098 45.5422C46.5564 45.2017 45.9143 45.294 45.5737 45.7474L42.4964 49.8505C42.2226 50.2146 42.2226 50.7173 42.4964 51.0814L45.5737 55.1844C45.7758 55.4532 46.0835 55.5947 46.3953 55.5947C46.6087 55.5947 46.8251 55.528 47.0097 55.3895C47.4631 55.05 47.5544 54.4068 47.2149 53.9534L44.5992 50.4658L47.2149 46.9782C47.5545 46.5249 47.4631 45.8817 47.0098 45.5422Z" fill="#BF2419"/>
<path d="M58.4986 49.8505L55.4213 45.7474C55.0819 45.294 54.4386 45.2007 53.9852 45.5422C53.5318 45.8818 53.4394 46.5249 53.78 46.9783L56.3957 50.4659L53.78 53.9535C53.4394 54.4069 53.5318 55.05 53.9852 55.3896C54.1698 55.5281 54.3852 55.5948 54.5996 55.5948C54.9125 55.5948 55.2191 55.4532 55.4212 55.1846L58.4985 51.0815C58.7715 50.7172 58.7715 50.2146 58.4986 49.8505Z" fill="#BF2419"/>
<path d="M51.7242 44.3317C51.1703 44.2209 50.6277 44.58 50.5179 45.1359L48.4664 55.3936C48.3546 55.9486 48.7157 56.4892 49.2705 56.5999C49.3382 56.6143 49.4059 56.6204 49.4726 56.6204C49.9516 56.6204 50.3804 56.283 50.4768 55.7957L52.5284 45.538C52.6402 44.9831 52.2791 44.4426 51.7242 44.3317Z" fill="#BF2419"/>
</svg>
