<svg width="319" height="406" viewBox="0 0 319 406" fill="none" xmlns="http://www.w3.org/2000/svg">
<path d="M0.249033 191.738C0.11155 183.446 5.82681 173.364 13.0082 169.229L291 9.16705L292.802 8.08612C300.055 3.73377 306.132 7.02386 306.292 15.391L306.661 34.6058L0.573838 211.325L0.249033 191.738Z" fill="#424E52"/>
<path d="M3.3001 386.067C3.7001 401.267 14.4668 397.067 19.8001 393.067L15.3001 392.067L14.3001 371.067L3 366.167L3.3001 386.067Z" fill="#E6E6E6"/>
<path d="M15.8301 399.067C11.8301 398.267 8.16341 396.9 6.33008 395.067C10.8301 393.067 19.3301 385.856 21.3301 386.656C23.3301 387.456 23.4967 394.234 23.3301 397.567C22.4967 398.067 19.8301 399.867 15.8301 399.067Z" fill="#E6E6E6" stroke="#E5E5E5" stroke-width="0.2"/>
<rect width="9.25716" height="160" transform="matrix(0.884988 0.465614 0.0165799 0.999863 0.507324 206.908)" fill="#E6E6E6"/>
<path d="M315.5 15.6058C314.3 5.60581 298.833 5.10583 295 7.10583L307.5 15.0658L315.5 15.6058Z" fill="#424E52"/>
<path d="M7.97363 205.571L315.503 28.0185L318.57 212.993C318.708 221.276 313.003 231.349 305.829 235.491L24.28 398.043C17.1056 402.185 11.1783 398.828 11.0409 390.545L7.97363 205.571Z" fill="white"/>
<rect width="9.13154" height="328.289" transform="matrix(0.885832 0.464007 -0.865116 0.501572 295.008 7.16705)" fill="#424E52"/>
<rect width="8.85406" height="15.3491" transform="matrix(0.884988 0.465614 0.0165799 0.999863 0.325195 196.003)" fill="#424E52"/>
<path d="M316.081 37.8743L316.297 37.7493L316.293 37.4993L315.968 17.8914C315.829 9.47025 309.802 6.05735 302.508 10.2685L20.9599 172.821C13.6659 177.032 7.86618 187.272 8.00582 195.694L8.33096 215.301L8.33511 215.551L8.55162 215.426L316.081 37.8743Z" fill="#424E52" stroke="#424E52" stroke-width="0.5"/>
<circle r="6" transform="matrix(0.884988 -0.465614 0 1 255.31 56.3227)" fill="#3C4548"/>
<circle r="6" transform="matrix(0.884988 -0.465614 0 1 277.31 43.3227)" fill="#3C4548"/>
<circle r="6" transform="matrix(0.884988 -0.465614 0 1 298.31 30.3227)" fill="#D37C76"/>
<path d="M1 197.234V211.052L7.81818 215V189.646L11 182.429L16 177" stroke="#424E52"/>
<circle r="20" transform="matrix(0.896873 -0.442289 0 1 201.422 189.954)" stroke="#A26864" stroke-width="10"/>
<circle r="39" transform="matrix(0.896873 -0.442289 0 1 201.422 189.954)" stroke="#A26864" stroke-width="10"/>
<path d="M201.422 150.954V129.954L194.696 133.272L191.557 155.82L201.422 150.954Z" fill="#A26864"/>
<path d="M201.422 150.954V129.954L194.696 133.272L191.557 155.82L201.422 150.954Z" fill="#A26864"/>
<path d="M201.422 150.954V129.954L208.149 126.637L211.288 146.089L201.422 150.954Z" fill="#A26864"/>
<path d="M201.422 150.954V129.954L208.149 126.637L211.288 146.089L201.422 150.954Z" fill="#A26864"/>
<path d="M202.319 228.512V249.512L195.593 252.829L192.454 233.377L202.319 228.512Z" fill="#A26864"/>
<path d="M202.319 228.512V249.512L195.593 252.829L192.454 233.377L202.319 228.512Z" fill="#A26864"/>
<path d="M202.319 228.512V249.512L209.046 246.195L212.185 223.647L202.319 228.512Z" fill="#A26864"/>
<path d="M202.319 228.512V249.512L209.046 246.195L212.185 223.647L202.319 228.512Z" fill="#A26864"/>
<path d="M166.89 207.259L148.056 216.426L148.018 223.945L166.834 218.287L166.89 207.259Z" fill="#A26864"/>
<path d="M166.89 207.259L148.056 216.426L148.018 223.945L166.834 218.287L166.89 207.259Z" fill="#A26864"/>
<path d="M166.891 207.259L148.056 216.426L148.095 208.907L166.947 196.231L166.891 207.259Z" fill="#A26864"/>
<path d="M166.891 207.259L148.056 216.426L148.095 208.907L166.947 196.231L166.891 207.259Z" fill="#A26864"/>
<path d="M236.851 172.208L255.685 163.041L255.646 170.56L236.794 183.235L236.851 172.208Z" fill="#A26864"/>
<path d="M236.851 172.208L255.685 163.041L255.646 170.56L236.794 183.235L236.851 172.208Z" fill="#A26864"/>
<path d="M236.851 172.208L255.685 163.041L255.724 155.522L236.908 161.18L236.851 172.208Z" fill="#A26864"/>
<path d="M236.851 172.208L255.685 163.041L255.724 155.522L236.908 161.18L236.851 172.208Z" fill="#A26864"/>
<path d="M177.856 229.936L164.751 251.482L169.583 254.318L184.942 234.095L177.856 229.936Z" fill="#A26864"/>
<path d="M177.856 229.936L164.751 251.482L169.583 254.318L184.942 234.095L177.856 229.936Z" fill="#A26864"/>
<path d="M177.856 229.936L164.751 251.482L159.92 248.646L170.769 225.777L177.856 229.936Z" fill="#A26864"/>
<path d="M177.856 229.936L164.751 251.482L159.92 248.646L170.769 225.777L177.856 229.936Z" fill="#A26864"/>
<path d="M225.885 149.53L238.99 127.984L243.821 130.82L232.971 153.689L225.885 149.53Z" fill="#A26864"/>
<path d="M225.885 149.53L238.99 127.984L243.821 130.82L232.971 153.689L225.885 149.53Z" fill="#A26864"/>
<path d="M225.885 149.53L238.989 127.984L234.158 125.149L218.799 145.371L225.885 149.53Z" fill="#A26864"/>
<path d="M225.885 149.53L238.989 127.984L234.158 125.149L218.799 145.371L225.885 149.53Z" fill="#A26864"/>
<path d="M226.047 206L238.888 215.029L243.809 207.489L233.264 194.941L226.047 206Z" fill="#A26864"/>
<path d="M226.047 206L238.888 215.029L243.809 207.489L233.264 194.941L226.047 206Z" fill="#A26864"/>
<path d="M226.047 206L238.888 215.029L233.968 222.569L218.83 217.059L226.047 206Z" fill="#A26864"/>
<path d="M226.047 206L238.888 215.029L233.968 222.569L218.83 217.059L226.047 206Z" fill="#A26864"/>
<path d="M177.694 173.467L164.853 164.437L169.774 156.897L184.911 162.408L177.694 173.467Z" fill="#A26864"/>
<path d="M177.694 173.467L164.853 164.437L169.774 156.897L184.911 162.408L177.694 173.467Z" fill="#A26864"/>
<path d="M177.694 173.467L164.853 164.437L159.932 171.978L170.477 184.526L177.694 173.467Z" fill="#A26864"/>
<path d="M177.694 173.467L164.853 164.437L159.932 171.978L170.477 184.526L177.694 173.467Z" fill="#A26864"/>
<circle r="12.3428" transform="matrix(0.896873 -0.442289 0 1 130.06 278.373)" stroke="#D37C76" stroke-width="10"/>
<circle r="25.5233" transform="matrix(0.896873 -0.442289 0 1 130.06 278.373)" stroke="#D37C76" stroke-width="10"/>
<path d="M130.06 251.318V236.75L125.394 239.051L123.216 254.693L130.06 251.318Z" fill="#D37C76"/>
<path d="M130.06 251.318V236.75L125.394 239.051L123.216 254.693L130.06 251.318Z" fill="#D37C76"/>
<path d="M130.06 251.318V236.75L134.726 234.449L136.904 247.943L130.06 251.318Z" fill="#D37C76"/>
<path d="M130.06 251.318V236.75L134.726 234.449L136.904 247.943L130.06 251.318Z" fill="#D37C76"/>
<path d="M130.682 305.121V319.689L126.016 321.99L123.838 308.496L130.682 305.121Z" fill="#D37C76"/>
<path d="M130.682 305.121V319.689L126.016 321.99L123.838 308.496L130.682 305.121Z" fill="#D37C76"/>
<path d="M130.682 305.121V319.689L135.348 317.388L137.526 301.746L130.682 305.121Z" fill="#D37C76"/>
<path d="M130.682 305.121V319.689L135.348 317.388L137.526 301.746L130.682 305.121Z" fill="#D37C76"/>
<path d="M106.105 290.377L93.0394 296.737L93.0125 301.953L106.065 298.027L106.105 290.377Z" fill="#D37C76"/>
<path d="M106.105 290.377L93.0394 296.737L93.0125 301.953L106.065 298.027L106.105 290.377Z" fill="#D37C76"/>
<path d="M106.105 290.377L93.0397 296.737L93.0666 291.521L106.144 282.727L106.105 290.377Z" fill="#D37C76"/>
<path d="M106.105 290.377L93.0397 296.737L93.0666 291.521L106.144 282.727L106.105 290.377Z" fill="#D37C76"/>
<path d="M154.637 266.062L167.702 259.702L167.676 264.918L154.598 273.712L154.637 266.062Z" fill="#D37C76"/>
<path d="M154.637 266.062L167.702 259.702L167.676 264.918L154.598 273.712L154.637 266.062Z" fill="#D37C76"/>
<path d="M154.637 266.062L167.703 259.702L167.73 254.486L154.677 258.412L154.637 266.062Z" fill="#D37C76"/>
<path d="M154.637 266.062L167.703 259.702L167.73 254.486L154.677 258.412L154.637 266.062Z" fill="#D37C76"/>
<path d="M113.712 306.109L104.621 321.055L107.973 323.022L118.627 308.994L113.712 306.109Z" fill="#D37C76"/>
<path d="M113.712 306.109L104.621 321.055L107.973 323.022L118.627 308.994L113.712 306.109Z" fill="#D37C76"/>
<path d="M113.711 306.109L104.621 321.055L101.269 319.088L108.796 303.224L113.711 306.109Z" fill="#D37C76"/>
<path d="M113.711 306.109L104.621 321.055L101.269 319.088L108.796 303.224L113.711 306.109Z" fill="#D37C76"/>
<path d="M147.03 250.33L156.121 235.384L159.473 237.351L151.946 253.215L147.03 250.33Z" fill="#D37C76"/>
<path d="M147.03 250.33L156.121 235.384L159.473 237.351L151.946 253.215L147.03 250.33Z" fill="#D37C76"/>
<path d="M147.03 250.33L156.121 235.383L152.769 233.416L142.114 247.445L147.03 250.33Z" fill="#D37C76"/>
<path d="M147.03 250.33L156.121 235.383L152.769 233.416L142.114 247.445L147.03 250.33Z" fill="#D37C76"/>
<path d="M147.142 289.504L156.051 295.767L159.464 290.537L152.149 281.832L147.142 289.504Z" fill="#D37C76"/>
<path d="M147.142 289.504L156.051 295.767L159.464 290.537L152.149 281.832L147.142 289.504Z" fill="#D37C76"/>
<path d="M147.143 289.504L156.051 295.767L152.637 300.998L142.136 297.175L147.143 289.504Z" fill="#D37C76"/>
<path d="M147.143 289.504L156.051 295.767L152.637 300.998L142.136 297.175L147.143 289.504Z" fill="#D37C76"/>
<path d="M113.6 266.935L104.691 260.671L108.105 255.441L118.606 259.264L113.6 266.935Z" fill="#D37C76"/>
<path d="M113.6 266.935L104.691 260.671L108.105 255.441L118.606 259.264L113.6 266.935Z" fill="#D37C76"/>
<path d="M113.599 266.935L104.691 260.671L101.278 265.902L108.593 274.607L113.599 266.935Z" fill="#D37C76"/>
<path d="M113.599 266.935L104.691 260.671L101.278 265.902L108.593 274.607L113.599 266.935Z" fill="#D37C76"/>
</svg>
