<svg width="622" height="421" viewBox="0 0 622 421" fill="none" xmlns="http://www.w3.org/2000/svg">
<g filter="url(#filter0_d)">
<g clip-path="url(#clip0)">
<path d="M364.754 89.4864L364.754 89.4863C345.941 78.6549 327.193 67.7265 308.442 56.7955C301.048 52.4851 293.653 48.1744 286.253 43.869C280.311 40.398 274.36 36.9578 268.414 33.5202C255.73 26.1864 243.065 18.8643 230.54 11.2782C222.879 6.63297 214.904 4.30357 203.498 4.05311C197.352 3.63358 191.607 5.74479 186.062 8.75189C182.641 10.6071 179.2 12.8637 175.766 15.1159C173.68 16.4836 171.597 17.8497 169.522 19.1232L169.517 19.1265C169.217 19.3131 169.04 19.5833 168.935 19.7886C168.824 20.0056 168.749 20.2421 168.696 20.4675C168.589 20.9196 168.544 21.4454 168.548 21.9602C168.552 22.4788 168.605 23.027 168.715 23.5295C168.82 24.0102 168.998 24.5437 169.309 24.958C170.569 26.6387 171.456 27.962 171.991 29.0682C172.523 30.1694 172.656 30.9544 172.542 31.5959C172.429 32.2311 172.042 32.9004 171.164 33.7048C170.278 34.5163 168.971 35.3934 167.155 36.4523C158.597 41.4406 150.008 46.3952 141.415 51.3524C126.143 60.1631 110.856 68.9819 95.7024 78.0118L95.702 78.012C87.5229 82.8904 79.5814 84.5528 70.7956 81.2719C68.8965 80.4963 66.8392 80.1876 64.7962 80.3717C62.7527 80.5558 60.7832 81.2277 59.0527 82.3307C57.8382 83.0595 56.633 83.7935 55.4312 84.5254C51.8736 86.692 48.3458 88.8404 44.6941 90.7829C39.9376 93.3114 35.655 96.7994 35.6536 102.946C35.6153 109.197 39.9729 113.126 44.5735 115.844L44.5744 115.845C57.3685 123.386 70.2365 130.785 83.1024 138.183L84.8454 139.186L84.8465 139.186C114.515 156.198 144.162 173.23 173.788 190.284C195.545 202.858 217.3 215.462 239.052 228.097C265.58 243.582 292.132 259.015 318.709 274.397L318.709 274.397C344.526 289.327 370.376 304.205 396.26 319.032C404.207 323.6 412.829 324.405 421.729 323.644C426.995 323.203 431.561 321.365 435.822 319.079C437.949 317.938 440.012 316.678 442.046 315.421C442.264 315.287 442.481 315.152 442.698 315.018C444.516 313.893 446.313 312.781 448.146 311.746L448.147 311.746C463.142 303.262 478.068 294.663 492.991 286.065C498.681 282.787 504.372 279.509 510.065 276.237C516.434 272.579 522.811 268.932 529.189 265.284C545.696 255.842 562.208 246.397 578.605 236.76L578.606 236.76C584.096 233.529 587.016 229.221 586.977 224.712C586.937 220.211 583.952 215.913 578.528 212.69L578.017 213.55L578.528 212.69C569.053 207.063 559.525 201.563 550.002 196.085C543.169 192.146 536.33 188.232 529.493 184.319C520.645 179.255 511.8 174.193 502.978 169.083C493.352 163.503 483.744 157.886 474.133 152.267C461.113 144.655 448.091 137.042 435.022 129.52L434.524 130.386L435.022 129.519C423.53 122.906 411.996 116.37 400.466 109.835L399.879 109.503C388.153 102.857 376.431 96.2124 364.754 89.4864Z" fill="url(#paint0_linear)" stroke="white" stroke-width="2"/>
<path d="M205.445 1C220.177 1.19016 232.042 8.05405 243.98 14.9994C271.716 31.1359 299.588 47.046 327.37 63.1191C356.448 79.9498 385.499 96.8198 414.523 113.729C444.668 131.169 474.813 148.574 504.958 165.942C532.215 181.707 559.545 197.336 586.657 213.355C606.553 225.127 607.258 248.363 587.842 260.931C573.562 270.168 558.423 278.046 543.718 286.63C522.249 299.153 500.87 311.849 479.356 324.3C466.586 331.689 453.934 339.404 440.658 345.788C423.069 354.264 404.801 354.255 387.645 344.62C354.275 325.885 321.266 306.497 288.166 287.336C253.554 267.354 218.99 247.342 184.473 227.3C156.158 211.001 127.761 194.774 99.419 178.483C79.1796 166.856 58.895 155.284 38.8274 143.394C33.8444 140.442 28.6535 137.055 25.0903 132.618C14.1476 119.035 18.371 101.378 34.3509 91.8695C47.5544 84.0096 60.9027 76.3941 74.2057 68.6881C98.6232 54.5709 122.914 40.3542 147.386 26.4091C160.192 19.1015 173.033 11.7848 186.273 5.45519C192.079 2.70239 199.033 2.41262 205.445 1ZM202.624 5.4733C190.867 4.65833 180.413 13.5234 169.217 20.4235C168.548 20.8401 168.539 23.8193 169.28 24.8063C174.345 31.5615 174.146 33.4993 166.829 37.7644C143.009 51.628 119.025 65.2109 95.3856 79.319C87.0204 84.3084 78.7546 86.0742 69.6025 82.6513C67.8477 81.9321 65.9459 81.6456 64.0574 81.8158C62.1688 81.9859 60.3487 82.6079 58.7503 83.6293C53.9663 86.4998 49.2546 89.4971 44.3349 92.114C39.6504 94.6042 35.8521 97.837 35.825 103.397C35.825 109.111 39.7137 112.76 44.2535 115.431C57.6199 123.309 71.0676 131.034 84.5153 138.767C114.154 155.809 143.796 172.839 173.44 189.857C195.223 202.407 216.979 215.012 238.707 227.671C265.235 243.095 291.787 258.529 318.363 273.971C344.179 288.906 370.028 303.784 395.911 318.604C403.634 323.032 412.009 323.838 420.799 323.087C430.955 322.181 438.515 315.978 446.808 311.315C467.518 299.597 488.092 287.662 508.72 275.809C531.582 262.679 554.525 249.694 577.252 236.337C587.869 230.089 587.67 220.228 577.17 213.989C567.72 208.365 558.179 202.869 548.674 197.381C533.011 188.326 517.284 179.443 501.648 170.379C478.967 157.23 456.43 143.892 433.695 130.816C410.326 117.369 386.786 104.239 363.427 90.7829C337.2 75.6787 311.083 60.3844 284.92 45.1625C266.317 34.2962 247.597 23.7197 229.194 12.5636C221.697 8.00878 213.892 5.71779 202.624 5.4733Z" fill="url(#paint1_linear)"/>
<g filter="url(#filter1_f)">
<path d="M202.452 4.05237C213.721 4.29686 221.525 6.58784 229.022 11.1336C247.426 22.2806 266.146 32.8662 284.748 43.7325C310.911 58.9544 337.02 74.2487 363.255 89.3529C386.615 102.809 410.155 115.939 433.524 129.386C456.241 142.462 478.795 155.8 501.477 168.949C517.113 178.004 532.84 186.923 548.503 195.951C558.026 201.43 567.549 206.926 577.017 212.55C587.517 218.789 587.716 228.65 577.099 234.898C554.372 248.255 531.429 261.24 508.567 274.37C487.938 286.223 467.364 298.158 446.655 309.876C438.362 314.557 430.801 320.796 420.646 321.647C411.855 322.399 403.463 321.593 395.758 317.165C369.875 302.339 344.026 287.461 318.21 272.532C291.634 257.15 265.082 241.717 238.554 226.232C216.801 213.597 195.046 200.992 173.287 188.417C143.66 171.363 114.013 154.33 84.3439 137.319C70.8962 129.585 57.4485 121.861 44.0821 113.983C39.5604 111.312 35.6174 107.645 35.6536 101.949C35.6536 96.3889 39.479 93.1561 44.1635 90.6659C49.0832 88.049 53.7949 85.0517 58.5789 82.1812C60.1773 81.1598 61.9974 80.5378 63.886 80.3677C65.7745 80.1975 67.6763 80.484 69.4311 81.2032C78.5832 84.6261 86.849 82.8603 95.2142 77.8709C118.89 63.7628 142.874 50.1799 166.658 36.3163C173.974 32.0512 174.173 30.1134 169.109 23.3582C168.367 22.3712 168.376 19.392 169.046 18.9754C180.241 12.1025 190.696 3.23739 202.452 4.05237Z" fill="white"/>
<path d="M364.503 87.1866L364.503 87.1863C345.693 76.3571 326.951 65.4318 308.201 54.5016C300.806 50.1907 293.409 45.879 286.006 41.5721C280.053 38.0942 274.097 34.6508 268.148 31.2118C255.471 23.8823 242.829 16.5733 230.317 8.99524C222.41 4.20069 214.179 1.81358 202.565 1.55423C196.019 1.11687 189.985 3.37554 184.347 6.43333C180.886 8.31036 177.331 10.6399 173.848 12.9228C171.774 14.2818 169.726 15.6242 167.738 16.8449L167.731 16.8489L167.725 16.853C167.1 17.2414 166.766 17.7787 166.599 18.1073C166.416 18.4649 166.306 18.8245 166.236 19.123C166.094 19.7233 166.044 20.3745 166.048 20.9713C166.053 21.5776 166.114 22.2312 166.25 22.8503C166.374 23.4154 166.609 24.1923 167.109 24.8578C168.36 26.5264 169.173 27.753 169.641 28.721C170.102 29.6766 170.102 30.126 170.065 30.3332C170.031 30.5247 169.894 30.9181 169.151 31.5987C168.389 32.297 167.197 33.1084 165.399 34.1565C156.854 39.1373 148.271 44.0887 139.681 49.0445C124.401 57.8595 109.096 66.6888 93.9345 75.7232L93.9336 75.7238C86.0336 80.4357 78.5777 81.9431 70.3409 78.8743C68.2257 78.0146 65.9358 77.6728 63.6616 77.8777C61.3859 78.0828 59.1925 78.8293 57.2639 80.0547C56.0359 80.7916 54.8244 81.5295 53.6213 82.2622C50.0742 84.4223 46.5997 86.5383 42.9901 88.4584C38.1252 91.0445 33.1573 94.9154 33.1536 101.941C33.1123 109.027 38.0916 113.348 42.8105 116.136L42.8127 116.137C55.614 123.682 68.4884 131.085 81.3525 138.482L83.0977 139.486L83.1004 139.487C112.767 156.498 142.412 173.53 172.037 190.582C193.793 203.156 215.547 215.759 237.297 228.393C263.826 243.879 290.38 259.313 316.957 274.695L316.958 274.696C342.776 289.626 368.628 304.505 394.512 319.333C402.823 324.109 411.789 324.913 420.854 324.139C426.402 323.674 431.174 321.738 435.531 319.401C437.703 318.235 439.801 316.954 441.834 315.697C442.053 315.562 442.271 315.427 442.488 315.293C444.309 314.167 446.079 313.071 447.884 312.053L447.886 312.052C462.885 303.565 477.816 294.963 492.738 286.366C498.43 283.087 504.12 279.808 509.812 276.538C516.177 272.883 522.55 269.237 528.926 265.59C545.436 256.146 561.96 246.695 578.365 237.053L578.367 237.053C584.13 233.661 587.522 228.933 587.477 223.699C587.431 218.486 583.98 213.779 578.294 210.401L578.294 210.4C568.809 204.767 559.273 199.263 549.75 193.784C542.907 189.84 536.067 185.926 529.232 182.014C520.389 176.952 511.554 171.896 502.729 166.785C493.116 161.213 483.51 155.596 473.9 149.978C460.873 142.362 447.839 134.742 434.771 127.22L434.77 127.219C423.274 120.604 411.738 114.066 400.21 107.533L399.619 107.198C387.892 100.552 376.174 93.9096 364.503 87.1866Z" stroke="white" stroke-width="5"/>
</g>
</g>
</g>
<defs>
<filter id="filter0_d" x="0" y="0" width="623" height="421" filterUnits="userSpaceOnUse" color-interpolation-filters="sRGB">
<feFlood flood-opacity="0" result="BackgroundImageFix"/>
<feColorMatrix in="SourceAlpha" type="matrix" values="0 0 0 0 0 0 0 0 0 0 0 0 0 0 0 0 0 0 127 0"/>
<feOffset dy="50"/>
<feGaussianBlur stdDeviation="10"/>
<feColorMatrix type="matrix" values="0 0 0 0 0 0 0 0 0 0 0 0 0 0 0 0 0 0 0.13 0"/>
<feBlend mode="normal" in2="BackgroundImageFix" result="effect1_dropShadow"/>
<feBlend mode="normal" in="SourceGraphic" in2="effect1_dropShadow" result="shape"/>
</filter>
<filter id="filter1_f" x="10.6533" y="-21.0001" width="599.324" height="367.896" filterUnits="userSpaceOnUse" color-interpolation-filters="sRGB">
<feFlood flood-opacity="0" result="BackgroundImageFix"/>
<feBlend mode="normal" in="SourceGraphic" in2="BackgroundImageFix" result="shape"/>
<feGaussianBlur stdDeviation="10" result="effect1_foregroundBlur"/>
</filter>
<linearGradient id="paint0_linear" x1="311.315" y1="5" x2="311.315" y2="322.896" gradientUnits="userSpaceOnUse">
<stop stop-color="white"/>
<stop offset="1" stop-color="#FFF9F9"/>
</linearGradient>
<linearGradient id="paint1_linear" x1="350.477" y1="78.5" x2="310.499" y2="352.003" gradientUnits="userSpaceOnUse">
<stop stop-color="#F7F7F7"/>
<stop offset="1" stop-color="#C1C1C1"/>
</linearGradient>
<clipPath id="clip0">
<rect x="20" width="583" height="351" fill="white"/>
</clipPath>
</defs>
</svg>
