<svg width="319" height="406" viewBox="0 0 319 406" fill="none" xmlns="http://www.w3.org/2000/svg">
<path d="M0.249033 191.738C0.11155 183.446 5.82681 173.364 13.0082 169.229L291 9.16705L292.802 8.08612C300.055 3.73377 306.132 7.02386 306.292 15.391L306.661 34.6058L0.573838 211.325L0.249033 191.738Z" fill="#424E52"/>
<path d="M3.3001 386.067C3.7001 401.267 14.4668 397.067 19.8001 393.067L15.3001 392.067L14.3001 371.067L3 366.167L3.3001 386.067Z" fill="#E6E6E6"/>
<path d="M15.8301 399.067C11.8301 398.267 8.16341 396.9 6.33008 395.067C10.8301 393.067 19.3301 385.856 21.3301 386.656C23.3301 387.456 23.4967 394.234 23.3301 397.567C22.4967 398.067 19.8301 399.867 15.8301 399.067Z" fill="#E6E6E6" stroke="#E5E5E5" stroke-width="0.2"/>
<rect width="9.25716" height="160" transform="matrix(0.884988 0.465614 0.0165799 0.999863 0.507324 206.908)" fill="#E6E6E6"/>
<path d="M315.5 15.6058C314.3 5.60581 298.833 5.10583 295 7.10583L307.5 15.0658L315.5 15.6058Z" fill="#424E52"/>
<path d="M7.97363 205.571L315.503 28.0184L318.57 212.993C318.708 221.276 313.003 231.349 305.829 235.491L24.28 398.043C17.1056 402.185 11.1783 398.828 11.0409 390.545L7.97363 205.571Z" fill="white"/>
<rect width="9.13154" height="328.289" transform="matrix(0.885832 0.464007 -0.865116 0.501572 295.008 7.16705)" fill="#424E52"/>
<rect width="8.85406" height="15.3491" transform="matrix(0.884988 0.465614 0.0165799 0.999863 0.325195 196.003)" fill="#424E52"/>
<path d="M1 197.234V211.052L7.81818 215V189.646L11 182.429L16 177" stroke="#424E52"/>
<path d="M316.107 37.8558L316.324 37.7308L316.32 37.4808L315.995 17.8729C315.855 9.45176 309.829 6.03885 302.535 10.25L20.9862 172.802C13.6923 177.013 7.89255 187.254 8.03219 195.675L8.35733 215.283L8.36148 215.533L8.57798 215.408L316.107 37.8558Z" fill="#424E52" stroke="#424E52" stroke-width="0.5"/>
<circle r="6" transform="matrix(0.884988 -0.465614 0 1 255.31 56.3227)" fill="#3C4548"/>
<circle r="6" transform="matrix(0.884988 -0.465614 0 1 277.31 43.3227)" fill="#3C4548"/>
<circle r="6" transform="matrix(0.884988 -0.465614 0 1 298.31 30.3227)" fill="#D37C76"/>
<rect width="120.973" height="75.2784" rx="10" transform="matrix(0.866025 -0.5 0.0165799 0.999863 192 130.487)" fill="#A26864"/>
<rect width="66.5175" height="32.2925" rx="5" transform="matrix(0.866025 -0.5 0.0165799 0.999863 53 258.259)" fill="#A26864"/>
<rect width="144.118" height="32.2925" rx="5" transform="matrix(0.866025 -0.5 0.0165799 0.999863 52 215.695)" fill="#A26864"/>
<rect width="143.804" height="51.4382" rx="5" transform="matrix(0.866025 -0.5 0.0165799 0.999863 53 302.695)" fill="#A26864"/>
<rect width="83.9176" height="22.7124" rx="11.3562" transform="matrix(0.866025 -0.5 0.0165799 0.999863 211.412 225.098)" fill="#D37C76"/>
</svg>
